<svg xmlns="http://www.w3.org/2000/svg" width="240" height="190" viewBox="0 0 240 190">
    <g fill="none" fill-rule="evenodd">
        <path fill="#F0F9FC" d="M30.328 16.818c4.582-9.86 17.317-13.21 28.15-11.914 10.834 1.295 21.033 5.963 31.857 7.336 16.38 2.08 32.703-3.501 49.188-4.479 24.802-1.47 50.059 8.095 67.61 25.606 17.55 17.512 27.105 42.68 25.575 67.372-.552 8.918-3.032 18.619-10.398 23.723-3.687 2.555-8.19 3.644-12.623 4.365-15.175 2.469-32.475 1.9-43.437 12.636-7.092 6.946-10.081 17.553-18.068 23.458-8.19 6.058-19.363 5.579-29.527 4.688-12.216-1.07-25.358-2.759-34.306-11.108-5.132-4.788-8.81-11.69-15.475-13.93-11.05-3.714-21.805 7.655-33.467 7.564-6.532-.051-12.629-3.853-16.67-8.962-4.043-5.11-6.273-11.408-7.804-17.73-3.547-14.639-3.496-30.778 3.759-43.99 2.059-3.75 4.672-7.229 6.168-11.234 1.497-4.006 1.682-8.85-.927-12.243-2.154-2.802-5.855-4.187-7.754-7.166-3.263-5.116.4-11.885 4.893-15.972C21.566 30.75 27.24 27.3 29.2 21.564"/>
        <path fill="#FFF" d="M133.667 83.685c-3.031 1.022-6.087 2.07-8.814 3.736-2.728 1.668-5.137 4.03-6.276 7.008-1.138 2.978-.813 6.614 1.308 9-.694.906-1.404 1.844-1.693 2.946-.29 1.102-.054 2.423.865 3.102.908.67 2.152.54 3.282.54 1.131 0 2.471.32 2.864 1.374.526 1.413-1.039 2.69-1.454 4.138-.38 1.321.299 2.796 1.412 3.61 1.113.812 2.57 1.04 3.945.907 1.374-.133 2.691-.594 3.993-1.053.94-.331 1.91-.68 2.635-1.36.726-.681 1.144-1.791.727-2.692-.46-.992-1.72-1.395-2.25-2.35-.541-.974-.13-2.252.66-3.041.788-.789 1.87-1.201 2.916-1.592 1.738-.648 3.688-1.295 5.395-.57 1.05.446 1.826 1.348 2.764 1.997.938.648 2.278 1.014 3.182.319.667-.513.865-1.462.703-2.286-.162-.824-.62-1.555-1.069-2.265l-8.594-13.585c-1.84-2.909-3.683-5.823-5.803-8.535l-1.404.826"/>
        <path fill="#AAE4FF" d="M156.156 76.353a25.802 25.802 0 0 0-13.071 1.193c-1.643.599-3.227 1.367-4.914 1.822-1.688.456-3.54.579-5.147-.107-1.608-.686-2.881-2.328-2.73-4.063-.716 1.723-.76 3.773.139 5.41.899 1.636 2.818 2.738 4.667 2.437 1.487-.241 2.694-1.275 3.91-2.159 4.882-3.549 11.151-5.15 17.146-4.381M145.669 106.087l-2.162.848c1.334 1.67 3.195 2.874 5.146 3.33l-3.51-4.858M134.525 93.311c-3.225.905-5.754 2.716-8.054 5.141-.878.925-1.53 2.098-2.272 2.776-.741.678-4.75 1.131-5.421-5.09-.108-.996-.254 3.641-.516 2.674.458.938 2.507 4.858 3.355 5.471.847.613 2.364 1.527 3.259.985.658-.4.724-1.81 1.119-2.47a16.168 16.168 0 0 1 6.82-6.222c1.048-.505 3.049-1.256 2.476-2.236"/>
        <path fill="#AAE4FF" d="M135.664 95.855a14.824 14.824 0 0 0-3.89 2.886c-.676.7-1.28 1.466-1.884 2.23l-1.63 2.062c-1.24 1.57-2.54 3.295-2.575 5.292-.014.809.185 1.607.435 2.377.516 1.59 1.297 3.156 2.596 4.215.55.447 1.232.805 1.94.74.313-.029.614-.14.928-.158.314-.018.668.087.811.365-.55.444-1.327.478-2.029.384-2.688-.36-5.064-2.438-5.769-5.046-.255-.945-.306-1.93-.337-2.907-.023-.718-.037-1.439.063-2.15.302-2.159 1.61-4.035 2.977-5.738 1.406-1.75 2.96-3.453 4.948-4.507.837-.444 1.785-.771 2.724-.634.42.06.897.302.925.725l-.288.148"/>
        <path fill="#FFF" d="M156.37 74.086c-3.381-1.307-7.167-.501-10.717.243-3.55.746-7.413 1.38-10.67-.208-.885-.43-1.822-1.034-2.773-.78-.793.212-1.314.974-1.607 1.738a6.237 6.237 0 0 0 .31 5.088 6.284 6.284 0 0 0 4.047 3.123c-1.765 3.043-1.39 6.953.093 10.142 1.484 3.188 3.937 5.812 6.35 8.376l5.387 5.724c1.305 1.386 2.714 2.836 4.563 3.303 1.833.464 3.756-.127 5.525-.793a61.593 61.593 0 0 0 7.69-3.517c1.624-.882 3.263-1.889 4.276-3.43 1.013-1.54 1.22-3.753.007-5.144l4.058-1.92c.658-.311 1.333-.636 1.824-1.171.491-.536.758-1.342.46-2.003-.42-.928-1.628-1.116-2.639-1.262-4.275-.617-8.31-2.77-11.193-5.973-2.883-3.204-4.592-7.433-4.74-11.731"/>
        <path fill="#AAE4FF" d="M166.085 92.333c-.048-.29-.374-.434-.657-.516a9.707 9.707 0 0 0-3.81-.308c-.93.11-3.82 1.922-4.669 2.316-2.65 1.234-5.269 3.088-8.226 2.708-5.06-.651-5.266-.137-7.47.48-1.3.364-2.512-1.474-3.303-2.742-.512-.82-.971-2.022-1.224-2.953-.25-.922-.428-1.896-.987-2.672-.073-.102-.162-.205-.284-.232-.272-.06-.453.27-.518.54-.428 1.787-.115 3.698.631 5.378.746 1.68 1.904 3.15 3.184 4.473.724.75 1.509 1.47 2.457 1.904.355-1.237 1.01-2.494 2.172-3.055 1.133-.548 2.469-.314 3.721-.17 3.674.426 7.633-.126 10.543-2.4.514-.402.989-.852 1.517-1.235 1.881-1.364 4.324-1.783 6.645-1.604M156.57 76.279c-2.624-.537-4.818-.617-7.71-.275-2.017.24-4.658 1.004-6.47 1.92-1.812.915-2.827 2.134-4.851 2.308-2.024.174-4.199-.382-5.582-1.864-.636-.68-1.08-1.521-1.733-2.184-.065-.066-.138-.133-.228-.15-.253-.049-.393.28-.417.536-.244 2.639 1.525 5.201 3.896 6.403 2.372 1.203 3.236.194 5.473-1.622 2.063-1.675 6.15-3.413 8.777-3.839 2.753-.445 6.23-.445 8.812-.788.854-.113.144.344.171-.514"/>
        <path fill="#AAE4FF" d="M167.946 95.847c-1.752 4.27-4.942 8.551-9.155 10.47-4.214 1.92-8.516 1.524-12.908.052-1.436-2.204-4.876-6.057-3.528-4.781 4.854 4.592 14.482 3.363 17.619 1.382 3.137-1.98 7.37-7.328 6.837-10.276.427.274.6 2.163 1.026 2.436"/>
        <path fill="#FFF" d="M168.66 59.64c3.848-.9 7.938-.985 11.725.145s7.248 3.533 9.301 6.897c2.565 4.2 2.711 9.688.644 14.152-2.067 4.465-6.21 7.856-10.927 9.31-4.717 1.455-9.935 1.031-14.487-.876-.822-.344-1.772-1.028-1.539-1.885.171-.625.885-.905 1.507-1.096l5.864-1.794c1.465-.448 3-.94 4.044-2.057 1.226-1.312 1.53-3.276 1.222-5.041-.308-1.766-1.15-3.387-1.98-4.977l-4.875-9.34c-.305-.584-.615-1.184-.681-1.838-.067-.653.166-1.381.732-1.718"/>
        <path fill="#AAE4FF" d="M135.901 117.411a34.72 34.72 0 0 1-6.972 2.148c-.978.19-1.985.34-2.968.177-.983-.163-1.95-.685-2.43-1.556-.347-.63-.362-1.449-.038-2.073l-.134-.014c-.81.579-.959 1.81-.48 2.68.478.87 1.446 1.393 2.43 1.556.982.163 1.99.014 2.967-.177a34.698 34.698 0 0 0 8.17-2.684l-.545-.057zM121.754 109.623c-.964.08-1.982-.094-2.754-.674-.69-.518-1.129-1.404-1.016-2.245l-.228-.088c-.278.922.183 1.96.954 2.54.772.58 1.79.754 2.754.674.963-.08 1.89-.39 2.805-.698l-.154-.06c-.771.254-1.553.484-2.361.55"/>
        <path fill="#2E5488" d="M117.454 107.097c.192.068.234.143.306.506.021.09.068.248.132.385.06.138.122.258.117.312-.013.11.07.183.114.27.019.035.035.07.056.104.078.138.172.267.27.368.052.053.225.244.54.425.309.182.758.343 1.234.405.473.067.96.043 1.336-.001.374-.044.631-.099.649-.104.07-.029.19-.07.26-.08.208-.03.258-.052.415-.043.437.023.724.16.77.34.044.177-.12.51-.51.733-.285.16-.496.291-1.011.383-.092.02-.548.112-.668.088-.048-.013-1.05.05-2.023-.267a4.26 4.26 0 0 1-1.262-.641c-.318-.242-.508-.467-.54-.504-.288-.298-.546-.763-.67-1.212-.13-.45-.115-.87-.122-1.059a.399.399 0 0 1 .237-.389.5.5 0 0 1 .37-.019"/>
        <path fill="#AAE4FF" d="M176.896 91.578a14.762 14.762 0 0 1-7.627 5.788c2.715.002 5.41-1.171 7.253-3.157.417-.448.806-.97.875-1.578.068-.608-.301-1.3-.908-1.393M168.805 59.594c.067 2.9 1.335 5.615 2.78 8.115 1.446 2.5 3.106 4.908 4.081 7.627.455 1.268.755 2.663.368 3.97-.617 2.085-2.744 3.337-4.69 4.375l-5.69 3.036c-.722.385-1.521.783-2.316.627-.859-.17-1.436-.93-1.932-1.636-1.793-2.55-3.617-5.165-4.435-8.175-1.048-3.86-.274-8.196 2.06-11.537 2.333-3.34 6.183-5.625 10.243-6.078"/>
        <path fill="#2E5488" d="M156.623 73.98c-.127-.002-.228-.097-.273-.93-.002-.208.002-.462.012-.773.034-.308.051-.677.129-1.103.135-.854.396-1.97 1.005-3.326.296-.686.797-1.617 1.49-2.58a15.987 15.987 0 0 1 2.558-2.775c1.944-1.666 4.075-2.745 4.896-3.055 1.613-.633 3.168-1.145 4.851-1.414.67-.107 1.345-.182 2.02-.219 2.716-.17 5.424.257 7.73 1.091.626.233 1.98.715 3.65 1.779.824.545 1.749 1.198 2.648 2.06.899.858 1.798 1.89 2.579 3.116a14.836 14.836 0 0 1 1.846 4.206 15.9 15.9 0 0 1 .474 4.937c-.19 3.4-1.429 6.865-3.505 9.71a18.063 18.063 0 0 1-3.643 3.736 19.323 19.323 0 0 1-4.353 2.492 19.26 19.26 0 0 1-8.701 1.413c-2.61-.226-4.752-1.027-6.103-1.807-1.378-.758-2.099-1.374-2.204-1.44a8.75 8.75 0 0 1-.676-.527c-.243-.2-.503-.41-.741-.643-.497-.446-.94-.933-1.26-1.28a22.015 22.015 0 0 1-1.81-2.403 18.929 18.929 0 0 1-2.403-5.475 12.657 12.657 0 0 1-.44-2.611c-.075-1.436.113-2.182.224-2.179.134 0 .237.757.57 2.084.172.664.402 1.464.773 2.374.358.914.81 1.947 1.423 3.04a21.068 21.068 0 0 0 3.073 4.19c.626.665 1.35 1.327 2.22 2.002a15.011 15.011 0 0 0 3.206 1.904l.512.197c.217.087.476.19.779.267.593.187 1.326.35 2.075.456 1.501.22 3.06.155 3.668.097l.658-.054c.355-.06.847-.114 1.443-.24a17.29 17.29 0 0 0 4.595-1.627c.22-.117.443-.236.67-.359.228-.122.443-.272.671-.41.462-.27.892-.612 1.35-.941.874-.708 1.752-1.512 2.53-2.463.774-.95 1.478-2.011 2.067-3.159.582-1.15 1.029-2.39 1.339-3.663.305-1.273.475-2.585.455-3.878a14.362 14.362 0 0 0-.545-3.744 12.7 12.7 0 0 0-1.443-3.267c-.607-.973-1.277-1.853-2.007-2.575l-.263-.276-.277-.252-.538-.49c-.378-.288-.718-.59-1.077-.83a16.623 16.623 0 0 0-1.95-1.194c-.295-.145-.56-.286-.806-.4l-.659-.277c-.377-.169-.647-.245-.767-.29-1.989-.703-4.4-1.094-6.88-.959-2.477.123-5 .756-7.154 1.81a20.773 20.773 0 0 0-2.985 1.768 16.174 16.174 0 0 0-2.312 1.996 13.052 13.052 0 0 0-2.416 3.514c-.765 1.664-1.16 3.08-1.432 4.076-.261.998-.423 1.574-.566 1.573"/>
        <path fill="#2E5488" d="M168.878 59.921c.095-.016.173.003.285.25.112.247.259.723.551 1.6.148.44.435 1.229.741 1.954.303.727.62 1.391.71 1.643.173.507.439.937.682 1.4.096.185.197.368.299.55.406.731.855 1.436 1.271 2.084.217.362 1.002 1.479 1.916 3.119.448.825.919 1.78 1.242 2.886a9.885 9.885 0 0 1 .393 3.504c-.094 1.198-.461 2.404-1.132 3.356-.657.968-1.565 1.608-2.35 2.011-.795.41-1.486.632-1.973.787l-.82.242c-.31.1-.827.25-1.116.321-.845.211-1.045.282-1.632.432-1.606.41-2.412.893-2.543.74-.055-.068.06-.321.408-.669.348-.344.946-.765 1.772-1.114a18.54 18.54 0 0 1 1.732-.636c.61-.196 1.309-.378 2.212-.684.163-.057.634-.23 1.078-.445.448-.211.855-.477 1.017-.577.063-.058.84-.483 1.445-1.556.626-1.052.902-2.79.583-4.484-.28-1.696-1.133-3.295-1.831-4.498-.712-1.203-1.266-2.05-1.357-2.2-.391-.61-.835-1.31-1.251-2.063a25.55 25.55 0 0 1-1.13-2.31c-.654-1.529-1.058-2.93-1.249-3.544-.387-1.239-.14-2.071.047-2.099M156.615 76.733c.001.197-.151.283-2.29.427-.537.036-1.508.109-2.414.195-.907.083-1.748.185-2.056.194-.615.014-1.18.136-1.771.233-.236.04-.472.076-.704.124-.94.178-1.85.41-2.655.68-.434.151-1.89.616-3.58 1.67a13.311 13.311 0 0 0-2.523 2.05c-.784.847-1.486 1.843-1.938 2.94a9.921 9.921 0 0 0-.756 3.37c-.059 1.104.07 2.138.277 2.997.422 1.724 1.085 2.765 1.112 2.839.175.295.495.779.678 1.048.537.79.714.96 1.13 1.505 1.193 1.477 2.01 2.24 1.884 2.403-.053.07-.353.001-.834-.256-.48-.256-1.145-.702-1.873-1.407a13.043 13.043 0 0 1-1.406-1.592 11.215 11.215 0 0 1-1.38-2.448c-.085-.2-.319-.785-.496-1.405-.174-.62-.282-1.265-.3-1.522 0-.121-.194-1.27.003-2.92.097-.822.309-1.764.685-2.717.366-.957.921-1.91 1.595-2.76 1.346-1.715 3.164-2.955 4.64-3.7 1.478-.758 2.615-1.081 2.805-1.153 1.6-.54 3.711-.915 5.592-1.068 1.883-.162 3.529-.171 4.254-.214 1.454-.076 2.32.295 2.32.487"/>
        <path fill="#2E5488" d="M156.707 74.08c-.018.096-.067.161-.37.175-.305.013-.866-.024-1.908-.07a34.719 34.719 0 0 0-2.362-.009c-.89.026-1.72.087-2.022.083-.605-.014-1.168.082-1.755.152-.235.025-.469.057-.702.09-.936.13-1.852.315-2.703.496l-1.418.297c-.695.14-1.594.317-2.65.434-1.052.111-2.288.156-3.56-.073-1.267-.222-2.592-.696-3.696-1.548-.132-.1-.278-.232-.39-.322a.907.907 0 0 0-.759-.209.896.896 0 0 0-.475.253 5.332 5.332 0 0 0-1.647 3.133 4.613 4.613 0 0 0 .134 1.964c.14.467.286.727.303.762.148.277.45.719.647.945.272.345.483.528.664.693.186.159.347.303.606.486.707.528 1.372.776 1.828.95.23.086.413.146.537.197.125.055.192.106.191.152 0 .046-.07.094-.208.14-.14.05-.35.091-.626.097-.545.013-1.393-.089-2.314-.602a6.204 6.204 0 0 1-1.719-1.37 5.586 5.586 0 0 1-1.291-2.628 5.89 5.89 0 0 1-.1-1.56 5.8 5.8 0 0 1 .334-1.575c.063-.1.387-1.305 1.621-2.528l.24-.226a2.161 2.161 0 0 1 2.56-.207c.067.047.137.089.198.142l.161.136c.638.581 1.484 1.036 2.4 1.322.917.29 1.898.416 2.822.418a17 17 0 0 0 2.595-.218c1.549-.247 2.66-.504 2.855-.536a36.362 36.362 0 0 1 2.671-.484 30.05 30.05 0 0 1 2.878-.253c1.868-.08 3.502.053 4.224.096 1.454.083 2.244.623 2.206.806M166.818 92.819c-.06.084-.146.09-.582-.083a5.525 5.525 0 0 0-1.005-.283 5.789 5.789 0 0 0-1.918-.003c-.41.06-.984.195-1.6.433-.617.23-1.268.588-1.894.974-1.239.782-2.396 1.645-2.862 1.898-.907.525-1.773 1.081-2.763 1.48a14.763 14.763 0 0 1-6.033 1.091c-.42.006-1.316-.106-2.423-.181-.555-.028-1.161-.022-1.77.14-.606.16-1.193.483-1.523 1.037-.34.55-.45 1.344-.257 2.118.093.388.249.766.482 1.105.237.35.532.677.88.966.692.584 1.569 1.026 2.5 1.375.94.346 1.924.604 2.92.765 1.993.325 4.025.252 5.855-.122 1.83-.384 3.457-1.046 4.733-1.813a15.635 15.635 0 0 0 2.894-2.181c.642-.623.985-1.04 1.036-1.09.363-.442.95-1.214 1.239-1.672.447-.655.682-1.095.891-1.482.11-.192.198-.378.296-.577.1-.198.209-.41.32-.67.17-.354.303-.699.432-1.023.133-.326.23-.618.29-.88a1.93 1.93 0 0 0 .044-.69.962.962 0 0 0-.186-.475 1.043 1.043 0 0 0-.6-.41c-.165-.033-.275-.017-.298-.062-.02-.033.044-.153.285-.23.234-.068.661-.035 1.053.297.193.154.383.42.473.718.1.3.128.645.098.993-.029.348-.106.705-.207 1.057-.1.357-.21.736-.358 1.124-.418 1.13-.88 2.08-1.54 3.123-.665 1.037-1.541 2.175-3.005 3.464-.273.225-1.052.902-1.94 1.46-.878.572-1.84 1.038-2.23 1.189-.094.04-.57.247-1.357.51a16.83 16.83 0 0 1-3.231.74c-2.663.37-6.304.108-9.532-1.475-.801-.408-1.577-.929-2.202-1.615-.628-.672-1.082-1.554-1.218-2.445-.148-.888-.028-1.82.411-2.583.217-.38.513-.71.84-.959a3.85 3.85 0 0 1 1.036-.548c.701-.247 1.38-.302 1.967-.3.588.005 1.094.06 1.518.1.846.094 1.373.113 1.536.117 1.317.03 2.827-.138 4.305-.593.74-.22 1.468-.518 2.162-.867.693-.35 1.356-.764 1.996-1.181 1.275-.842 2.494-1.672 3.626-2.205a9.481 9.481 0 0 1 2.771-.848c1.256-.186 2.314.105 2.906.479.603.37.79.727.739.793"/>
        <path fill="#2E5488" d="M172.899 91.414c.17.093.245.157.16.554-.041.197-.21.709-.322.77-.103.064-.134.175-.206.261l-.086.102c-.114.138-.24.26-.348.38-.12.125-.81.804-1.604 1.279-.389.248-.797.446-1.107.586-.313.136-.53.214-.544.222a.989.989 0 0 1-.215.106c-.18.04-.221.062-.358.057-.382-.021-.615-.183-.654-.361-.039-.182.084-.494.34-.698.188-.15.315-.27.638-.4.058-.028.327-.17.405-.181.038-.001.64-.218 1.2-.557a6.622 6.622 0 0 0 1.116-.816c.372-.367.898-.993.962-1.225.06-.226.45-.169.623-.079M177.753 92.01c.181.07.26.132.148.727-.031.149-.112.409-.194.657-.09.243-.203.459-.268.52-.128.126-.187.282-.29.42l-.122.164c-.161.222-.352.413-.51.601-.176.196-1.215 1.266-2.481 1.91a9.433 9.433 0 0 1-1.768.738c-.501.15-.848.215-.873.22-.096.035-.26.084-.355.097-.28.02-.35.037-.553.016-.563-.078-.86-.29-.857-.47.002-.188.292-.463.749-.628.166-.067.308-.122.474-.178.164-.067.355-.116.617-.181.094-.032.543-.176.658-.2.056-.001 1.016-.264 1.892-.78a8.762 8.762 0 0 0 1.164-.8c.295-.263.51-.45.537-.492.268-.302.61-.691.859-1.078.264-.376.43-.746.485-.914.08-.345.504-.412.688-.348"/>
        <path fill="#2E5488" d="M167.22 95.296c.054-.08.12-.122.4.007.27.133.79.434 1.438 1.302.335.429.811 1.31 1.018 2.23.23.912.175 1.824.089 2.136-.147.627-.272 1.232-.577 1.807-.116.228-.25.44-.389.648-.57.834-1.295 1.484-1.972 2.006-.372.302-1.598 1.14-3.286 2.09a47.201 47.201 0 0 1-6.098 2.893c-1.106.427-2.225.836-3.34 1.093-1.109.262-2.215.343-3.162.226a6.589 6.589 0 0 1-2.224-.685c-.259-.125-.45-.25-.588-.337a4.188 4.188 0 0 1-.238-.153c-.306-.199-.798-.58-1.027-.84-.353-.365-.54-.625-.704-.851a4.988 4.988 0 0 1-.444-.766c-.432-.9-.54-1.686-.528-2.205.01-.522.115-.79.199-.79.1-.004.21.258.393.7.179.442.444 1.067.907 1.763.333.504.682.9 1.133 1.303.455.393 1.003.84 1.866 1.197.155.066.618.244 1.107.317.49.09 1.01.09 1.216.096.097.004 1.022.02 2.377-.342 1.349-.357 3.138-1.023 4.87-1.772a45.57 45.57 0 0 0 4.7-2.385c1.288-.738 2.117-1.34 2.254-1.454.579-.45 1.195-1.01 1.672-1.689a4.873 4.873 0 0 0 .86-2.274 5.489 5.489 0 0 0-.222-2.157 4.743 4.743 0 0 0-.626-1.297c-.358-.502-.648-.893-.84-1.206-.2-.298-.29-.529-.234-.611M142.33 80.884c.104.163.13.262-.139.592-.137.168-.472.605-.59.642-.124.033-.177.143-.266.215l-.107.087c-.145.114-.28.236-.405.344-.134.121-.878.782-1.483 1.523-.31.364-.585.744-.786 1.036a6.34 6.34 0 0 0-.326.513 1.058 1.058 0 0 1-.107.224c-.105.156-.12.202-.225.298-.286.266-.565.37-.733.288-.164-.078-.32-.403-.241-.815.06-.297.1-.523.345-.92.047-.07.242-.433.328-.495.04-.032.571-.693 1.177-1.287.597-.603 1.267-1.129 1.328-1.182.49-.456 1.36-1.013 1.57-1.223.212-.213.556-.004.66.16M133.522 84.07c.064.185-.029.31-1.687 1.015l-1.866.811c-.7.31-1.344.611-1.59.692-.491.163-.912.408-1.362.631l-.536.27c-.712.372-1.387.773-1.98 1.174-.319.222-1.39.92-2.556 2.11a12.256 12.256 0 0 0-1.674 2.148 9.76 9.76 0 0 0-1.15 2.729 8.618 8.618 0 0 0-.248 2.867c.07.91.313 1.73.611 2.38.613 1.304 1.408 1.945 1.441 1.993.208.185.584.463.795.615.313.219.52.34.707.439.183.11.353.177.594.309 1.371.637 2.312.635 2.324.854.008.085-.217.23-.683.323-.464.1-1.18.103-2.037-.146a6.989 6.989 0 0 1-1.692-.776 6.814 6.814 0 0 1-1.79-1.665 7.472 7.472 0 0 1-.704-1.089c-.265-.497-.453-1.033-.504-1.248-.01-.103-.348-1.06-.35-2.476-.005-.705.074-1.516.27-2.354.191-.84.512-1.7.926-2.513.83-1.633 2.073-2.992 3.123-3.904 1.055-.914 1.894-1.436 2.035-1.533 1.169-.799 2.775-1.612 4.24-2.213 1.465-.609 2.773-1.055 3.338-1.286 1.134-.456 1.943-.34 2.005-.157"/>
        <path fill="#2E5488" d="M135.467 95.217c.102.177-.048.33-2.358 1.798-.575.376-1.599 1.067-2.479 1.802-.889.725-1.64 1.492-1.932 1.751-.588.518-1.028 1.087-1.483 1.69-.173.244-.356.482-.513.735a11.85 11.85 0 0 0-1.47 3.095c-.074.279-.26.871-.351 1.715a8.431 8.431 0 0 0-.034 1.431c.003.267.056.532.089.814.065.276.112.568.213.857a7.4 7.4 0 0 0 2.152 3.359 6.05 6.05 0 0 0 1.84 1.13c.67.253 1.434.394 2.1.322.689-.084 1.376-.355 1.874-.768.502-.419.751-.953.7-1.485-.046-.553-.432-1.193-.611-2.013a2.815 2.815 0 0 1-.057-.663c.02-.232.058-.465.148-.68.17-.434.479-.772.78-.997.613-.455 1.2-.626 1.69-.79l1.236-.38 1.164-.364a49.15 49.15 0 0 1 1.607-.524c1.237-.366 1.547-.472 2.44-.701 2.464-.632 3.892-.859 3.947-.683.054.175-1.25.873-3.62 1.738-1.717.626-2.978 1.096-5.77 1.962-.25.09-1.023.285-1.582.584-.28.152-.493.332-.588.49a.904.904 0 0 0-.144.394c0 .047-.045.26.138.797.085.269.231.61.363 1.068.136.45.205 1.104-.002 1.724-.091.315-.264.602-.456.876-.21.256-.443.503-.717.699a4.736 4.736 0 0 1-1.866.836 4.598 4.598 0 0 1-1.615.068c-.176-.027-.357-.034-.531-.081-.71-.135-1.387-.423-2.011-.778a7.28 7.28 0 0 1-1.67-1.322 8.08 8.08 0 0 1-1.23-1.642c-.683-1.15-1.01-2.393-1.116-3.483-.161-2.19.42-3.667.468-3.915.33-1.044.847-2.184 1.554-3.243.688-1.067 1.566-2.057 2.449-2.892 1.761-1.704 3.622-2.804 4.406-3.306 1.594-.997 2.757-1.188 2.848-1.025"/>
        <path fill="#2E5488" d="M120.179 103.296c.129.147.147.25-.232.751-.094.126-.26.352-.402.558-.145.205-.261.392-.328.44-.137.097-.178.248-.254.374a2.19 2.19 0 0 0-.086.154 2.061 2.061 0 0 0-.213.6c-.019.1-.09.471.027.875.063.197.167.382.34.53.172.15.43.271.734.347.3.08.645.117.966.14.322.022.621.023.88.012.515-.021.858-.084.882-.089.095-.031.257-.074.35-.09.271-.04.336-.067.537-.074.556-.022.923.038.994.213.067.165-.14.568-.7.85-.405.2-.716.358-1.434.444-.13.02-.76.09-.917.055-.037-.01-.384-.017-.879-.084-.483-.072-1.178-.167-1.838-.575a2.29 2.29 0 0 1-.791-.83 2.46 2.46 0 0 1-.29-.938c-.053-.569.063-.945.068-1.012.052-.271.156-.576.31-.86.15-.278.335-.542.526-.768.383-.453.76-.78.902-.949.29-.337.722-.22.848-.074M125.161 113.785c.023.095.017.168-.1.27-.11.107-.356.231-.67.58-.16.173-.39.53-.458.888-.083.36-.035.702-.042.824-.018.255.102.47.217.671.045.084.101.163.158.242.24.308.585.553.945.723.194.092.857.389 1.891.442 1.022.081 2.33-.097 3.588-.471 1.255-.365 2.49-.884 3.388-1.267.428-.189.728-.38.895-.528.172-.147.217-.241.23-.253.057-.106.092-.266.1-.36.02-.273-.038-.347-.137-.603-.17-.364-.43-.68-.578-.913-.155-.235-.223-.398-.168-.474.053-.073.244-.085.541.008.292.101.713.28 1.128.769.287.351.517.806.483 1.379-.016.28-.104.59-.279.876-.173.29-.427.537-.725.754a5.3 5.3 0 0 1-.748.446 6.108 6.108 0 0 1-.76.321l-1.422.515c-.814.283-1.907.623-3.054.812-1.145.195-2.34.193-3.246.034-.922-.15-1.53-.473-1.635-.522a3.607 3.607 0 0 1-1.282-1.006 2.885 2.885 0 0 1-.609-1.651c-.03-.575.12-1.112.336-1.513.215-.402.474-.666.632-.824.32-.322.7-.418.955-.398.261.019.406.137.426.229"/>
        <path fill="#2E5488" d="M136.346 118.05c.081.171.071.294-.749.798-.41.257-1.527.87-1.81.915-.277.055-.508.187-.767.278l-.311.104c-.417.139-.83.263-1.208.376-.208.06-.878.257-1.782.467-.91.199-2.014.469-3.229.545-.605.03-1.224-.006-1.806-.155a4.409 4.409 0 0 1-1.486-.682c-.815-.583-1.086-1.288-1.113-1.325-.1-.179-.21-.507-.233-.697-.05-.555-.035-.705.077-1.088.179-.527.502-.86.756-1.002.26-.146.435-.13.484-.06.057.079.012.242-.04.46-.055.22-.108.5-.116.835-.002.242.034.451.105.674.076.227.165.445.403.739.038.055.178.196.343.323.163.128.354.234.424.287.032.023.368.241.946.372.581.138 1.42.137 2.291.01a32.104 32.104 0 0 0 3.695-.757 41.555 41.555 0 0 0 2.312-.747c.761-.274 1.413-.552 1.688-.705.546-.306 1.04-.142 1.126.034"/>
        <path fill="#FFF" d="M152.472 107.602c.129-.012.194-.008.294.142.05.076.173.274.146.323-.026.049.01.09.015.135l.004.054.018.209c.014.142.113 1.56.125 1.586a.26.26 0 0 1 .026.095c-.003.075.005.093-.02.148-.07.154-.198.249-.321.26a.504.504 0 0 1-.415-.189c-.07-.099-.128-.17-.146-.338-.003-.03-.037-.174-.02-.212.016-.037.05-1.226.044-1.286-.024-.242-.014-.622-.065-.725-.05-.103.185-.19.315-.202M149.198 108.26c.111-.067.167-.1.25-.126.042-.014.144-.045.12-.024-.024.021.007.009.01.014l.003.006c.003.008.006.017.01.024.01.015.069.186.079.183.01-.002.022-.003.02.002-.004.014.003.012-.02.033a2.515 2.515 0 0 1-.632.382c-.058.02-.106.039-.118.022-.002-.003-.03-.008-.014-.023.015-.013.066-.216.062-.222-.016-.026 0-.09-.043-.08-.041.009.162-.124.273-.191"/>
        <path fill="#2E5488" d="M171.8 93.386c.146-.127.235-.175.458-.121.117.028.402.072.415.138.012.073.086.062.128.093l.052.037c.068.053.142.093.206.136.072.04.474.283.914.391.217.063.437.091.602.106.165.012.277.009.284.004a.242.242 0 0 1 .114-.029c.088.008.109-.005.177.034.185.102.334.28.373.462.04.177-.022.48-.242.634-.157.11-.282.197-.562.2-.05-.003-.297.023-.354-.018-.027-.016-.525-.123-.974-.332-.456-.196-.85-.49-.888-.513-.34-.184-.741-.62-.896-.7-.163-.084.043-.398.193-.522M170.15 95.037c.165-.1.262-.132.464-.057.107.04.366.102.368.165-.002.07.07.064.105.096l.043.038c.055.054.12.096.175.14.06.04.412.292.816.396.398.121.798.098.808.085.027-.017.073-.037.1-.034.08.002.098-.011.162.024.176.09.337.252.397.429.06.17.033.478-.175.652-.148.121-.27.218-.553.235-.05 0-.3.035-.358-.006-.028-.014-.532-.111-.974-.333-.45-.207-.817-.531-.853-.557-.326-.208-.666-.69-.804-.794-.148-.111.11-.384.279-.479M166.469 62.281c.043.188.046.288-.11.458-.081.087-.265.312-.33.289-.07-.026-.099.042-.148.062l-.06.024c-.08.032-.156.07-.226.103-.074.039-.496.244-.846.532a4.054 4.054 0 0 0-.45.414c-.114.122-.183.21-.184.22a.244.244 0 0 1-.051.106c-.064.062-.068.087-.142.112a.728.728 0 0 1-.593-.028c-.16-.09-.345-.334-.326-.588.014-.182.023-.327.187-.531.032-.036.156-.232.22-.249.03-.01.4-.312.809-.542.405-.24.843-.4.882-.418.322-.175.874-.29 1.01-.386.143-.099.318.233.358.422"/>
        <path fill="#FFF" d="M173.112 76.628a1.87 1.87 0 0 1 .664 1.93c-.166.62-.655 1.116-1.216 1.436-.56.32-1.194.486-1.819.649a9.721 9.721 0 0 0 2.175-4.22"/>
        <path fill="#2E5488" d="M173.165 76.559c.059-.077.11-.13.226-.116.114.016.308.093.564.367.128.135.336.416.446.732.119.311.14.642.103.756-.065.225-.066.452-.146.663a2.51 2.51 0 0 1-.106.245c-.16.318-.373.583-.585.79l-.066.064-.124.11a3.9 3.9 0 0 1-.467.333c-.374.233-.851.423-1.332.565-.906.249-2.24.593-2.727.68.69-.811 1.349-1.556 1.766-2.094l.281-.383.215-.34c.07-.11.134-.216.19-.316l.112-.206a6.24 6.24 0 0 0 .284-.603c.023-.09.068-.238.102-.316.107-.23.114-.295.216-.452.272-.435.53-.676.714-.635.176.039.392.405.34.976-.042.41-.07.724-.345 1.319-.028.053-.094.213-.174.37-.03.057-.01.023-.016.033h-.015c-.014.004-.03-.004-.155.123l-.107.096c-.013.015-.06.051-.05.054-.001.008 0 .015.005.022.017.028.074.044.152.037a.684.684 0 0 0 .346-.14c.052-.04.084-.071.096-.082.27-.26.521-.664.532-1.056.025-.4-.144-.744-.255-.848-.107-.11-.126-.242-.122-.383.007-.14.043-.287.102-.365M190.568 69.422c-.02.192-.09.283-.917.336l-.933.075c-.35.028-.677.056-.795.029-.237-.055-.46.003-.692.008l-.278.004c-.373.003-.738.035-1.072.05-.363.027-2.368.173-4.244.639-.941.213-1.844.497-2.52.727-.673.236-1.117.418-1.147.436-.121.066-.33.168-.451.212-.353.14-.436.19-.703.26-.73.207-1.203.226-1.292.06-.084-.159.174-.615.824-1.06.472-.317.823-.557 1.666-.888.155-.054.885-.364 1.083-.385.093-.018 1.668-.48 3.295-.736 1.623-.284 3.282-.343 3.438-.353a23.704 23.704 0 0 1 2.215-.039c.736.01 1.38.065 1.667.05.577-.01.88.382.856.575M134.498 84.306c.132.043.142.126-.033 1.115-.04.25-.103.702-.143 1.128-.04.425-.066.824-.091.967-.062.285-.037.56-.05.844l-.004.34c-.007.454.019.902.054 1.309.02.221.082.945.299 1.882a13.508 13.508 0 0 0 2.953 5.774c.571.662 1.016 1.052 1.044 1.082.13.107.352.284.468.392l.7.594c.69.61 1.088.975 1.022 1.088-.056.1-.635.005-1.463-.497-.59-.372-1.04-.647-1.831-1.443-.148-.141-.822-.854-.946-1.064-.067-.088-1.334-1.707-2.046-3.626a14.348 14.348 0 0 1-.93-4.152c-.075-.799-.068-1.824.031-2.727.091-.905.274-1.681.337-2.028.132-.699.515-1.02.63-.978M143.35 106.78c.166-.1.266-.123.551.088.147.108.53.352.558.45.022.105.122.137.185.206l.075.082c.099.112.21.21.304.304.107.097.703.65 1.398 1.011.339.192.695.334.966.431.272.094.46.14.475.139a.69.69 0 0 1 .2.024c.147.045.186.041.286.106.276.171.436.39.42.576-.014.18-.234.445-.606.512-.267.046-.475.082-.879-.027-.07-.024-.432-.099-.503-.166-.036-.027-.725-.345-1.33-.788-.616-.429-1.127-.977-1.177-1.025-.446-.387-.947-1.14-1.132-1.323-.192-.187.04-.504.209-.6M124.695 90.104c.124.035.182.07.217.276.018.106.081.363.047.412-.04.05-.008.105-.012.158l-.004.063c-.008.085-.004.17-.006.247.002.082.009.549.14.978.056.216.142.419.211.568.072.149.13.244.136.248a.34.34 0 0 1 .074.09c.04.078.059.091.07.16.033.188-.004.355-.099.436-.091.079-.31.114-.502-.007-.137-.088-.245-.156-.369-.371-.02-.04-.142-.222-.14-.28-.004-.028-.153-.452-.21-.892-.07-.438-.04-.88-.04-.921-.019-.348.108-.868.107-1.022-.002-.16.256-.181.38-.143M122.561 91.438c.121-.046.186-.058.327.072.07.065.248.238.236.296-.011.057.036.09.054.135l.02.055.078.211c.055.144.567 1.583.587 1.607.02.023.047.065.053.092.019.078.032.094.024.158-.022.177-.118.308-.234.352a.498.498 0 0 1-.456-.089c-.097-.083-.174-.143-.24-.311-.012-.031-.088-.17-.083-.214.005-.043-.312-1.281-.334-1.34-.094-.245-.196-.64-.276-.733-.08-.093.123-.244.244-.29M129.347 101.169c.12.056.156.105.13.417-.02.16-.003.557-.037.636-.045.08-.017.165-.024.248l-.004.1c-.007.134 0 .266.01.386.002.128.094.867.506 1.439.196.288.442.534.648.693.205.16.36.243.371.248a.9.9 0 0 1 .168.071c.12.067.153.077.235.14.222.175.354.34.326.462-.025.116-.249.267-.597.223-.246-.036-.444-.062-.78-.278-.063-.037-.358-.227-.406-.304-.024-.03-.56-.536-.852-1.199-.317-.654-.344-1.375-.347-1.438-.027-.275-.01-.63.045-.936.051-.31.139-.569.16-.69.044-.25.336-.277.448-.218M127.74 102.959c.13.003.195.022.28.194.045.089.171.296.151.347-.025.054.019.094.029.14l.012.057c.013.076.038.149.056.216.023.07.147.475.378.811.11.172.24.322.342.431.105.107.182.171.19.174a.288.288 0 0 1 .09.053c.058.055.078.061.106.12.08.156.096.32.035.429-.06.105-.246.217-.459.173a.825.825 0 0 1-.446-.212c-.03-.03-.195-.155-.211-.209-.01-.023-.269-.36-.44-.74-.184-.375-.272-.78-.283-.817-.109-.31-.12-.81-.161-.95-.042-.144.202-.224.331-.217M158.2 82.57c.004.13-.03.196-.509.302-.242.056-.864.216-1.005.206-.144-.018-.27.035-.406.054l-.163.022c-.218.028-.431.07-.627.102-.211.04-1.38.254-2.462.622-.544.173-1.064.38-1.453.544-.388.167-.643.292-.66.304a2.192 2.192 0 0 1-.257.143c-.205.094-.252.127-.409.174-.429.137-.716.15-.78.042-.062-.104.067-.398.431-.69.264-.209.46-.367.944-.595.089-.038.505-.252.621-.272.055-.013.964-.348 1.907-.584.94-.25 1.91-.389 2.001-.405.756-.152 1.943-.22 2.276-.274.337-.057.547.176.55.306"/>
        <path fill="#AAE4FF" d="M142.632 90.001c-.73-.816-.6-2.132-.002-3.049 1.045-1.601 3.04-2.607 4.953-2.705l-.139-.248c-2.1-.13-4.446.919-5.612 2.705-.598.917-.727 2.233.002 3.049.365.408.88.629 1.427.72a2.052 2.052 0 0 1-.63-.472"/>
        <path fill="#2E5488" d="M147.44 84.313c-.003.065-.024.113-.166.152-.141.04-.405.061-.883.162a6.69 6.69 0 0 0-1.055.312c-.389.142-.73.32-.864.363-.265.095-.48.25-.71.397l-.269.182a5.49 5.49 0 0 0-1.072 1.026l-.227.32c-.154.24-.317.588-.384 1.005-.071.413-.034.898.201 1.282.225.387.67.656 1.185.766.516.115 1.079.085 1.585-.014a4.764 4.764 0 0 0 1.325-.465c.732-.389 1.094-.821 1.123-.843.1-.12.261-.328.345-.445.248-.349.284-.455.436-.724.396-.763.504-1.286.64-1.277.059.003.135.14.17.408.035.266.026.667-.126 1.149a4.012 4.012 0 0 1-.446.965 4.128 4.128 0 0 1-.952 1.027c-.083.07-.334.256-.606.418-.274.161-.57.29-.69.327-.058.015-.584.24-1.393.336a4.745 4.745 0 0 1-1.39-.03c-.503-.088-1.057-.297-1.487-.703-.436-.402-.665-.985-.706-1.508-.048-.53.06-1.015.209-1.407.145-.395.356-.703.511-.902.15-.212.274-.328.302-.37.272-.31.615-.633 1.005-.914.39-.279.823-.52 1.246-.706.847-.383 1.657-.515 2.01-.579.723-.125 1.15.17 1.134.29"/>
        <path fill="#CAF1FF" d="M71.757 88.968c0 19.272-15.69 34.895-35.046 34.895S1.664 108.24 1.664 88.968c0-19.273 15.691-34.896 35.047-34.896 19.355 0 35.046 15.623 35.046 34.896"/>
        <path fill="#FFF" d="M12.292 77.699c1.3 1.005 2.995 1.332 4.631 1.513 7.81.866 16.214-.785 23.207 2.781.942.48 1.866 1.075 2.442 1.958 1.105 1.692.624 4.025-.545 5.674-1.17 1.648-2.9 2.797-4.504 4.03a41.1 41.1 0 0 0-7.976 8.118c-1.65 2.23-3.13 4.95-2.496 7.646.638 2.714 3.308 4.553 6.038 5.169 3.622.817 7.404-.07 10.935-1.215 7.783-2.527 15.332-6.368 23.144-8.551a34.62 34.62 0 0 0 4.084-16.358c0-19.272-15.691-34.895-35.047-34.895a35.006 35.006 0 0 0-24.234 9.69 40.725 40.725 0 0 0-1.465 4.649c-.85 3.412-1.003 7.634 1.786 9.79"/>
        <path fill="#2E5488" d="M71.874 88.968c.128 0 .225.2.26 1.892l-.056 1.567c-.05.627-.114 1.369-.232 2.238l-.221 1.402-.337 1.6c-.134.569-.306 1.166-.475 1.808-.204.63-.404 1.307-.662 2.01a35.094 35.094 0 0 1-2.523 5.45c-1.18 2.076-2.72 4.263-4.459 6.176a35.835 35.835 0 0 1-5.313 4.802c-1.67 1.247-3.131 2.044-3.9 2.467-1.568.802-3.118 1.519-4.71 2.119-1.598.579-3.214 1.102-4.91 1.452-.673.159-1.358.253-2.035.381a68.12 68.12 0 0 1-2.049.258c-5.517.534-11.03-.25-15.707-1.938-.324-.106-.724-.278-1.213-.466-.493-.18-1.05-.435-1.683-.722-.641-.27-1.32-.653-2.084-1.034-.74-.425-1.555-.873-2.388-1.427-3.343-2.16-7.327-5.554-10.532-10.448-3.231-4.843-5.552-11.22-5.82-18.102-.078-1.716 0-3.454.159-5.198.194-1.742.506-3.484.937-5.206a39.137 39.137 0 0 1 1.723-5.053c.71-1.64 1.54-3.226 2.47-4.747a36.122 36.122 0 0 1 6.827-8.063 36.011 36.011 0 0 1 8.516-5.576c1.496-.71 3.024-1.269 4.536-1.76 1.525-.446 3.03-.845 4.527-1.08.742-.148 1.486-.22 2.215-.316.73-.085 1.453-.12 2.163-.176.71-.012 1.41-.05 2.097-.038.687.027 1.363.012 2.021.075 2.64.169 5.04.613 7.127 1.177.518.153 1.028.278 1.508.442l1.39.469c.878.346 1.694.648 2.41.99a33.712 33.712 0 0 1 3.337 1.713c.396.22.703.407.923.553l.417.265.694.437.753.525c.53.354 1.065.774 1.599 1.189.543.403 1.034.866 1.514 1.265.468.412.874.82 1.224 1.148 2.002 1.983 3.063 3.408 3.98 4.668.915 1.265 1.627 2.431 2.555 4.206a33.92 33.92 0 0 1 2.604 6.862c.529 2.063.804 3.852.91 5.305.075.724.086 1.366.096 1.92.004.276.012.53.008.762l-.031.628c-.044.747-.099 1.129-.16 1.129-.062 0-.14-.388-.232-1.13l-.07-.623-.111-.751c-.076-.544-.158-1.172-.297-1.875-.238-1.41-.63-3.13-1.256-5.09a36.79 36.79 0 0 0-2.773-6.46c-1.856-3.324-3.906-5.97-6.717-8.625a35.142 35.142 0 0 0-12.173-7.455l-1.13-.378c-.48-.163-1.07-.307-1.716-.495-1.306-.32-2.887-.67-4.508-.842-3.236-.443-6.558-.192-7.851-.08l-1.396.166c-.756.122-1.795.28-3.052.585-.634.13-1.308.35-2.046.546-.722.248-1.51.476-2.316.809a33.59 33.59 0 0 0-5.207 2.527 34.15 34.15 0 0 0-5.44 4.028 34.83 34.83 0 0 0-4.975 5.618 33.233 33.233 0 0 0-3.82 7.029c-.523 1.261-.927 2.579-1.301 3.909-.332 1.34-.63 2.699-.802 4.078-.366 2.752-.43 5.556-.123 8.287a34.8 34.8 0 0 0 1.803 7.873 34.477 34.477 0 0 0 7.69 12.28c3.046 3.117 6.2 5.197 8.655 6.471.616.319 1.178.611 1.702.835.517.237.976.448 1.384.598l1.014.4.605.208a34.568 34.568 0 0 0 6.876 1.608c2.452.315 5.034.377 7.63.146 5.198-.439 10.396-2.207 14.712-4.813 4.327-2.616 7.732-6.028 10.043-9.226.59-.795 1.09-1.59 1.566-2.337.439-.768.867-1.479 1.2-2.17a31.172 31.172 0 0 0 1.524-3.464c1.34-3.66 1.94-6.734 2.284-8.863a49.89 49.89 0 0 1 .223-1.419c.063-.411.104-.76.154-1.043.095-.565.182-.862.247-.862"/>
        <path fill="#2E5488" d="M47.32 60.876c-.013-.128-.016-.226.1-.319.113-.083.366-.176.82-.092.225.04.624.182.936.435.323.254.519.557.546.684.054.25.189.44.249.666a4.279 4.279 0 0 1 .124 1.303c-.006.094-.018.294-.096.59a2.25 2.25 0 0 1-.637 1.078c-.39.364-.916.55-1.392.605a3.57 3.57 0 0 1-.713.015 3.527 3.527 0 0 1-.716-.125 3.416 3.416 0 0 1-1.276-.658c-.368-.314-.667-.742-.778-1.182a2.2 2.2 0 0 1-.022-1.062c.058-.251.123-.384.126-.403a1.69 1.69 0 0 1 .233-.495c.243-.309.301-.373.518-.516.604-.353 1.028-.295 1.18-.112.159.194.096.691-.128 1.146a2.897 2.897 0 0 0-.243.808c-.016.059.052.204.054.267-.007.013.018.14.232.337.213.195.64.397 1.087.427.23.018.445-.004.6-.056a.625.625 0 0 0 .33-.223c.155-.213.183-.508.185-.546.021-.374-.039-.936-.228-1.294-.179-.375-.486-.55-.627-.559-.137-.01-.2-.121-.284-.268-.077-.147-.164-.321-.18-.451M27.356 62.628a3.478 3.478 0 0 1-.02-.069l.004.02c.007.02.03.06.037.063.018.002-.07-.032-.227.045a.708.708 0 0 0-.15.1c-.015.014.029-.023.075-.116.01-.024.024-.046.031-.077v-.003h.001l-.117.388h-.004l-.006.001-.012.002-.025.004-.11.017c-.079.016-.161.031-.24.052-.158.04-.294.079-.347.052-.11-.054-.201.022-.298.044-.04.008-.08.016-.118.027-.156.04-.314.098-.432.162-.016.008-.013 0-.035.012-.012.005-.01.016-.004.025l.01.017.003.002.036.027.073.05c.047.031.094.062.14.087.182.106.33.153.433.156a.406.406 0 0 0 .25-.058c.149-.09.182-.197.182-.197-.007-.032-.017-.073-.006-.097.032-.072.015-.094.067-.166.143-.21.22-.532.394-.706a.503.503 0 0 1 .459-.097c.204.046.456.218.602.545.101.235.162.467.15.751-.013.281-.112.637-.4.982a2.339 2.339 0 0 1-.398.387c-.19.146-.42.247-.52.26-.033.003-.498.165-1.075.047a2.597 2.597 0 0 1-.832-.329c-.274-.167-.422-.283-.802-.607-.159-.142-.319-.285-.422-.436a1.081 1.081 0 0 1-.203-.462.844.844 0 0 1 .065-.485c.06-.141.157-.258.26-.365.413-.427.866-.603.903-.634.408-.22.986-.36 1.504-.365.259-.006.502.02.704.05.101.017.192.03.27.047.08.018.128.012.265.062a.575.575 0 0 1 .352.332.614.614 0 0 1-.007.465c-.035.081-.101.158-.171.184a.188.188 0 0 1-.169-.005c-.078-.053-.102-.13-.12-.19M18.681 92.59c-.03-.125-.043-.22.028-.323.071-.1.227-.215.566-.308.17-.048.493-.11.816-.092.321.011.63.104.718.184.175.154.387.206.574.356.07.06.142.12.206.185.263.259.459.564.597.865.06.158.346.73.168 1.58a2.32 2.32 0 0 1-.714 1.195c-.355.325-.8.534-1.272.632-.472.097-.995.05-1.447-.15a2.175 2.175 0 0 1-.982-.871c-.376-.656-.34-1.145-.357-1.174a1.444 1.444 0 0 1-.017-.492c.077-.37.11-.47.268-.701.234-.315.529-.466.74-.502.223-.03.361.035.428.137.068.102.091.278.11.45.018.13.04.305.07.52.036.24.1.4.166.673.007.065.139.222.139.266.003.014.033.103.174.187.137.085.478.11.771-.038a.94.94 0 0 0 .346-.279.726.726 0 0 0 .137-.355c.029-.258-.054-.466-.066-.496a1.493 1.493 0 0 0-.71-.731c-.33-.161-.687-.178-.832-.132-.145.044-.269-.041-.384-.166a1.093 1.093 0 0 1-.24-.42M52.02 97.864a.876.876 0 0 1-.303.014c-.085-.011-.175-.047-.28-.035a.462.462 0 0 0-.192.074c-.028.02-.03.043-.04.055-.014.01-.024.015-.032-.002-.04-.058-.062.017-.094.033-.015.004-.029.016-.045.023a.461.461 0 0 0-.15.146c-.018.035-.078.094-.07.283.002.182.153.47.357.573a.756.756 0 0 0 .353.1.499.499 0 0 0 .242-.052.187.187 0 0 0 .105-.124c-.006-.028-.02-.073-.007-.093.032-.064.012-.076.068-.127.071-.071.152-.162.211-.277.063-.115.105-.246.184-.344a.47.47 0 0 1 .433-.161c.209.02.48.191.625.513.102.23.158.45.153.711-.01.258-.075.57-.347.929-.047.06-.208.261-.406.396-.189.141-.408.229-.5.239-.04.001-.44.131-.959.054a2.484 2.484 0 0 1-.816-.271 2.28 2.28 0 0 1-.733-.628c-.394-.512-.53-1.16-.455-1.656.067-.503.308-.809.333-.852.26-.427.824-.812 1.43-.833.632-.036 1.077.319 1.266.48.204.165.196.42.088.574a.655.655 0 0 1-.42.258M32.416 119.033c-.17-.096-.192-.19-.3-.297a.18.18 0 0 0-.137-.041c-.048.007-.071.037-.05.015.04-.045-.006-.002-.003 0v-.002c0-.002-.006-.005-.003-.006.005-.001-.025-.003-.069.02l-.02.013h-.001-.003l-.147-.077a1.35 1.35 0 0 0-.36-.132c-.164-.025-.091.05.042-.12.036-.042.075-.096.12-.168l.075-.128.042-.078c.006-.014.003-.003.004-.006a.288.288 0 0 0 .073.03l.874.317a.755.755 0 0 0 .152.032c.001.008.003-.016.003.018l.006.084.008.068c.013.087.043.15.043.15l.111.176-.007-.01-.016-.019c-.011-.01-.024-.022-.036-.029-.022-.016-.047-.025-.053-.027-.01 0 .048.01.103-.004a.214.214 0 0 0 .103-.045c.016-.033-.025.082.031-.105.028-.108.112-.287.361-.255.245.036.501.343.475.715a.982.982 0 0 1-.357.712l-.086.068a1.285 1.285 0 0 1-.87.223 2.871 2.871 0 0 1-.332-.04c-.13-.024-.219-.058-.254-.09a5.606 5.606 0 0 0-.419-.215l-.4-.194-.11-.054a2.692 2.692 0 0 1-.163-.093c-.119-.08-.303-.19-.449-.466a.937.937 0 0 1-.027-.79 1.34 1.34 0 0 1 .23-.362c.167-.192.355-.32.529-.403.35-.168.64-.158.686-.165.203-.016.433.02.645.12.213.097.392.269.514.458.256.386.238.82.24 1 .007.194-.171.317-.347.326-.178.016-.39-.085-.45-.124M5.94 82.774c.216-.142.334-.198.615-.082l.137.06.082.041.095.068c.122.095.218.206.211.265-.013.118.085.18.122.28l.04.122c.05.17.086.357.094.56.001.055.007.175-.03.37a1.4 1.4 0 0 1-.855 1.027 1.308 1.308 0 0 1-.628.077 1.48 1.48 0 0 1-.925-.497 1.52 1.52 0 0 1-.385-.909c-.012-.169.021-.38.066-.503.043-.136.105-.257.17-.358.275-.401.545-.51.552-.53a.712.712 0 0 1 .242-.158c.209-.056.26-.077.417-.046.44.105.574.448.517.678-.057.238-.229.59-.27.773a.588.588 0 0 0-.025.168c.001.024 0 .04.005.053 0 .005.003.01.004.014-.008-.01-.023-.032-.038-.048a.422.422 0 0 0-.124-.097h-.001.001a67.825 67.825 0 0 1-.175-.042c.012.003.025.007.09-.004a.357.357 0 0 0 .137-.06c.012-.012-.05.042-.086.14-.042.101-.017.178-.03.136a.053.053 0 0 0-.007-.013l-.071-.116.003.007.009.015c.007.015.04.047.037.045a.083.083 0 0 0 .014.014.036.036 0 0 0-.012-.007c-.025-.017-.062-.024-.09-.035.006.004.011-.003.016-.01.011-.01.012-.033.014-.035a1.254 1.254 0 0 0-.207-.626.538.538 0 0 0-.136-.146c-.162-.097.189-.448.405-.591M13.705 108.572c.17-.231.254-.352.408-.488.077-.07.28-.209.251-.148-.03.058.029.013.042.022l.015.01.057.047c.02.015.12.112.194.229.077.113.126.238.135.239.023 0 .05.007.047.018-.008.034.008.035-.04.076-.125.138-.377.26-.617.318-.24.057-.6.166-.748.246-.115.042-.209.086-.209.086s-.036.018 0-.001a.585.585 0 0 0 .136-.106c.05-.051.072-.104.072-.104-.015-.005 0-.06-.049-.008-.023.026.022-.036.083-.123l.223-.313M64.3 67.429c.06.114.065.221-.195.458-.25.25-.79.609-1.643 1.431a12.172 12.172 0 0 0-1.683 2.055c-.545.837-.92 1.685-1.065 1.966-.311.576-.406 1.184-.442 1.758-.016.23-.01.455.023.669.057.437.215.81.461 1.167.248.356.59.686.954 1 .35.33 1.95 1.46 3.584 3.383 1.651 1.907 3.306 4.628 4.208 7.61.445 1.494.657 3.18.209 4.72-.215.76-.55 1.416-.883 1.99-.336.573-.673 1.07-.964 1.523-.294.452-.541.857-.732 1.22a6.077 6.077 0 0 0-.241.514 3.963 3.963 0 0 0-.177.447 5.848 5.848 0 0 0-.263.952c-.07.372-.107 1.01-.125 1.368-.017.525.012.854.036 1.146.033.29.059.544.117.918.165 1.035.452 1.825.649 2.375.095.278.177.492.218.65.038.16.036.263-.013.3-.048.04-.15.017-.303-.07a2.51 2.51 0 0 1-.586-.471c-.454-.464-1.03-1.266-1.403-2.442a8.673 8.673 0 0 1-.413-2.546c0-.46.02-.958.128-1.513.097-.555.26-1.173.56-1.846.094-.256.442-.943.83-1.567.388-.626.778-1.211.934-1.431.038-.054.228-.334.48-.782.248-.453.549-1.06.668-1.831.125-.777.069-1.74-.186-2.768-.252-1.025-.67-2.127-1.16-3.18a20.434 20.434 0 0 0-3.668-5.345 20.908 20.908 0 0 0-1.666-1.556c-.457-.377-.77-.648-.86-.728-.376-.33-.781-.716-1.128-1.211a4.054 4.054 0 0 1-.696-1.746c-.183-1.283.192-2.526.68-3.555.993-2.071 2.466-3.466 3.108-4.057.65-.6 1.31-.907 1.792-1.026.485-.12.8-.06.856.05"/>
        <path fill="#2E5488" d="M12.247 114.404c-.087-.095-.124-.191.067-.468.19-.276.612-.74 1.553-1.432.469-.353 1.378-.922 2.305-1.33.923-.42 1.852-.663 2.193-.71.688-.07 1.317-.238 1.997-.278.27-.028.541-.021.81-.032a14.14 14.14 0 0 1 3.098.316c.521.086 2.179.504 4.206 1.302 2.035.769 4.456 1.885 6.9 2.38l.457.092.456.063c.303.047.603.08.907.098.607.04 1.218.047 1.82.045 1.201-.007 2.366-.028 3.396.069 1.028.09 1.897.29 2.508.492.612.197.966.39 1.015.405.39.157 1.022.528 1.33.804.471.407.708.714.906.988.198.275.34.537.505.939.433 1.126.344 2.13.102 2.715-.238.595-.528.801-.626.75-.246-.108.092-1.335-.814-2.841a4.14 4.14 0 0 0-1.209-1.281c-.518-.36-1.176-.699-2.197-.968a9.822 9.822 0 0 0-1.317-.226c-.58-.064-1.186-.083-1.43-.108-.12-.023-1.191-.038-2.862-.067a17.527 17.527 0 0 1-2.872-.292c-1.04-.198-2.103-.522-3.134-.891-2.064-.748-4.011-1.652-5.555-2.208-1.539-.568-2.66-.818-2.856-.85-.806-.163-1.727-.29-2.682-.282-.955.001-1.938.117-2.843.324-.906.204-1.73.5-2.394.798a9.49 9.49 0 0 0-1.46.81c-1.165.804-2.083 1.073-2.28.874"/>
        <path fill="#FFF" d="M113.669 16.55a9.505 9.505 0 0 1 6.975 1.514 9.429 9.429 0 0 1 3.875 5.97c.35 1.887.104 3.849-.463 5.682-.755 2.442-2.117 4.747-4.134 6.327-3.603 2.823-9.128 2.81-12.785.057s-5.184-7.957-3.697-12.275c1.487-4.318 5.82-7.472 10.4-7.687"/>
        <path fill="#2E5488" d="M113.648 16.436c-.021-.124.02-.239.558-.392.269-.071.665-.151 1.243-.182a9.083 9.083 0 0 1 2.314.185c.49.1 1.172.282 1.907.594a9.666 9.666 0 0 1 3.883 3.004c.426.554.7 1.04.825 1.306.491 1.066.915 2.103 1.088 3.257.068.456.106.915.115 1.37.04 1.84-.36 3.586-.897 5.092-.152.412-.468 1.293-1.115 2.428-.645 1.125-1.642 2.528-3.2 3.714-1.561 1.193-3.677 2.024-5.956 2.188-2.274.17-4.714-.33-6.773-1.544-2.077-1.209-3.616-3.12-4.505-5.096a12.007 12.007 0 0 1-.912-2.98c-.166-.977-.226-1.92-.163-2.79.08-1.743.593-3.157 1.024-4.1l.31-.632.272-.461c.148-.26.245-.408.27-.44.345-.574 1.05-1.466 1.51-1.903.33-.324.617-.57.863-.782l.677-.523c.426-.287.799-.536 1.39-.83 1.632-.814 3.058-1.053 4.003-1.102.476-.029.84.004 1.085.05.244.041.368.094.37.155.004.062-.116.141-.343.233a5.406 5.406 0 0 1-.42.147l-.565.2c-.843.3-2.056.749-3.41 1.602a12.055 12.055 0 0 0-2.523 2.132c-.759.865-1.591 1.931-2.217 3.608-.07.148-.144.456-.258.834-.087.385-.192.848-.234 1.327a12.11 12.11 0 0 0-.018 2.317c0 .095.04.572.205 1.323.162.75.478 1.779 1.102 2.87.623 1.082 1.538 2.251 2.817 3.121.63.443 1.343.823 2.115 1.095.767.28 1.584.486 2.42.565 1.667.19 3.383-.05 4.86-.629a9.364 9.364 0 0 0 3.552-2.505 12.097 12.097 0 0 0 1.822-2.745c.373-.764.553-1.295.611-1.45.448-1.288.804-2.822.78-4.398 0-1.575-.458-3.158-1.247-4.462a8.733 8.733 0 0 0-2.86-2.934 8.165 8.165 0 0 0-2.526-1.037c-1.15-.251-2.084-.36-2.754-.466-.668-.1-1.07-.2-1.095-.334"/>
        <path fill="#2E5488" d="M119.182 19.779c.051-.117.067-.186.274-.188.048 0 .166.016.285.083.112.061.197.157.203.203.013.09.072.15.09.237.01.033.013.067.017.1a.958.958 0 0 1-.039.382c-.021.056-.076.277-.34.464a.853.853 0 0 1-.482.143.944.944 0 0 1-.475-.14.88.88 0 0 1-.338-.372.81.81 0 0 1-.067-.46c.044-.263.16-.383.16-.396a.434.434 0 0 1 .1-.14c.104-.079.132-.102.23-.122.288-.044.418.137.399.251-.019.12-.082.311-.06.402.007.066.036.112.033.123.029.009-.06-.013-.062-.007-.006-.003-.031.012.023-.015-.018.007 0 .057.04.081.037.024.055.039.086.028a.107.107 0 0 0 .056-.055c.015-.052.025-.106 0-.161a.134.134 0 0 0-.121-.078c-.083.006-.06-.242-.012-.363M110.787 35.139c-.093-.08-.166-.135-.052-.318a.55.55 0 0 1 .189-.167c.087-.05.194-.064.23-.044.069.038.144.022.218.053a.724.724 0 0 1 .33.293c.022.049.136.211.083.501a.651.651 0 0 1-.273.398.677.677 0 0 1-.472.108.62.62 0 0 1-.446-.3.674.674 0 0 1-.088-.375.769.769 0 0 1 .085-.317.257.257 0 0 1 .044-.106c.055-.06.063-.077.117-.094.149-.037.274.039.361.124a.887.887 0 0 1 .19.366c.01.036.024.063.036.081a.061.061 0 0 0 .017.018l-.031-.014-.081-.034.003.001.004.002.006.002c.019.003-.022-.004-.048.001a.18.18 0 0 0-.078.028l-.003.002-.013.014a.08.08 0 0 0 .009-.024c.007-.025-.001-.054 0-.045.001.006.023.035.037.041-.03-.014-.024-.01-.051-.011-.044.005-.038.01-.035.006-.005.003.013-.01.022-.026-.01.028-.005.02-.01.015-.01-.008-.038 0-.03.021.024.03-.16-.128-.27-.2M120.323 28.1c-.019.13-.056.182-.14.273-.054.046-.094.18-.118.164-.035-.012-.028.025-.038.036l-.013.015a.198.198 0 0 0-.034.065c-.003.01-.012.036-.014.075 0 .042-.004.018-.004.034-.001.014.02.033.032.029.023-.017.02-.034.02-.034-.01.004-.016-.03-.012-.044.013-.044.004-.054.032-.09.075-.097.17-.216.285-.267.107-.05.337-.03.45.187.064.161.151.251.03.627-.014.067-.157.354-.23.379-.01-.003-.023.043-.22.151-.06.02-.224.075-.426.032a.887.887 0 0 1-.551-.393 1.02 1.02 0 0 1-.151-.622c.013-.153.054-.254.06-.273a.904.904 0 0 1 .39-.5c.178-.113.36-.147.439-.176.178-.059.247.21.213.333M103.664 23.932c-.049-.04-.087-.077-.059-.17.024-.08.157-.263.492-.303a.916.916 0 0 1 .712.237c.215.193.302.427.31.506.014.166.064.3.07.454.001.062-.001.126-.007.191-.012.13-.041.267-.103.407a.944.944 0 0 1-.317.39c-.008.006-.017.014-.096.059a.885.885 0 0 1-.365.095 1.012 1.012 0 0 1-.562-.146 1.106 1.106 0 0 1-.446-.508 1.063 1.063 0 0 1-.032-.765c.09-.252.24-.463.517-.613a.629.629 0 0 1 .67.053c.15.122.18.187.242.267.057.081.101.158.145.256.05.117.08.235.09.345a.823.823 0 0 1-.128.523.851.851 0 0 1-.743.362 1.091 1.091 0 0 1-.505-.135c-.203-.117-.267-.206-.279-.212a.8.8 0 0 1-.24-.39.835.835 0 0 1 .005-.412.692.692 0 0 1 .15-.282c.264-.29.579-.26.717-.197.154.071.185.173.16.225-.025.056-.11.102-.178.172-.072.068-.114.167-.09.218.008.041.04.074.06.06.014-.01.05.032.13.069.072.023.023-.01.046.012 0 0 .002.003.006 0 .003-.003.04.02.024-.05a.712.712 0 0 0-.069-.129l-.033-.05c-.01.011.032-.033.045-.052a.592.592 0 0 0 .042-.057.239.239 0 0 0 .031-.065c.004-.025-.006.036.028.11l.03.065c.01.02.002.005.003.01-.004 0-.012.006-.02.01a.277.277 0 0 0-.083.082.298.298 0 0 0-.048.233.352.352 0 0 0 .13.2c.126.087.19.052.211.047l.024-.015a.201.201 0 0 0 .062-.079.594.594 0 0 0 .045-.173 1.085 1.085 0 0 0-.038-.428c-.083-.27-.26-.314-.336-.291-.07.02-.107-.017-.193-.046-.08-.03-.175-.048-.227-.09M114.746 16.69a.384.384 0 0 1-.146.071c-.04.012-.133.028-.129.08.002.01.003.028.012.042a.023.023 0 0 0 .009.008c-.004-.001-.014-.005-.023-.006l-.013-.002h-.006.023l.018-.003c.066-.024.047-.018.072-.012.014.006.027.01.03.02.01.04.083.021.154.01.023-.001.084-.013.084-.013.002 0 .006 0 .009-.004v-.006l-.003-.005-.002-.001-.052-.03a.857.857 0 0 0-.096-.045c-.055-.023-.104-.023-.098-.023-.007-.002-.01.01-.017-.002a.255.255 0 0 0-.099-.082c-.003-.003-.03-.005.012-.001-.01 0 .003 0 .023-.005a.4.4 0 0 0 .088-.042c.002 0 .003.005.01.013.024.03.117.089.169.103.03.01.062.015.077.015.004-.048.027.132.055.152.014.022.017.02.007.014l-.012-.007-.002-.002h-.001l.023.011h-.001l-.005-.002a.2.2 0 0 0-.033-.01c-.053-.019-.171.004-.138-.006.001-.03-.082-.084-.103-.072-.042-.001-.099.04-.112.065-.018.025-.016.035-.016.035.012.004-.015-.002-.04-.003a.289.289 0 0 0-.06.002l-.009.003h-.002l-.05.014.002-.001.005-.003a.12.12 0 0 0 .022-.015c.05-.045.046-.072.043-.05a.162.162 0 0 0 .01.087c.008.016.008.008-.011-.003-.011-.011-.065-.022-.048-.02.026-.002.054-.028.073-.053.045-.051.044-.128.067-.185.018-.05.13-.119.285-.001a.446.446 0 0 1 .158.306.523.523 0 0 1-.264.5.68.68 0 0 1-.461.077.69.69 0 0 1-.421-.242.672.672 0 0 1-.136-.28.779.779 0 0 1-.008-.295.934.934 0 0 1 .28-.521c.057-.056.235-.21.477-.266.242-.068.516.006.593.057.02.013.134.057.273.187.13.13.31.35.292.72a.677.677 0 0 1-.374.554.85.85 0 0 1-.558.047 1.225 1.225 0 0 1-.43-.194.964.964 0 0 1-.35-.413.66.66 0 0 1 .097-.67.788.788 0 0 1 .498-.272.939.939 0 0 1 .465.063c.13.052.21.1.317.168.255.154.4.345.447.498.052.155.02.267.017.297v.003c-.054.265-.33.454-.664.531-.266.065-.554.08-.832-.08-.253-.142-.425-.459-.358-.742a.7.7 0 0 1 .368-.47c.272-.133.501.013.558.137.069.133.012.235-.039.27M110.872 23.144c-.046-.045-.081-.08-.08-.14.004-.056.051-.152.203-.23a.71.71 0 0 1 .363-.068c.142.008.278.079.298.116.05.077.127.107.178.168l.053.072c.066.096.108.188.143.267.013.04.097.204.1.473a.767.767 0 0 1-.214.544.684.684 0 0 1-.338.183.777.777 0 0 1-.317 0 .872.872 0 0 1-.687-.687.717.717 0 0 1 .044-.405c.045-.102.087-.148.09-.156a.504.504 0 0 1 .157-.168c.15-.08.194-.095.32-.091.177.011.315.118.353.213.043.097.009.168-.035.208-.045.042-.121.075-.167.134-.05.072-.042.087-.04.144.006.034.016.043.007.03a.167.167 0 0 0-.074-.056h-.003l.07.014h.017a.218.218 0 0 0 .092-.034c.006-.005-.006.008-.003.018.009.034-.004-.001.032.18-.02-.035.004.008 0 0 .004.004.002 0-.005-.004a.182.182 0 0 0-.038-.022c-.014-.006-.051-.018-.036-.014.01-.005.022-.04.022-.076a.379.379 0 0 0-.02-.145c-.039-.094-.089-.19-.139-.229-.037-.036-.097-.035-.099-.012-.002.022-.015-.029-.068-.08-.051-.052-.132-.103-.18-.147"/>
        <path fill="#FFF" d="M239.598 125.07c-9.735-5.163-21.101-6.64-32.113-6.012-16.662.95-33.267 6.748-45.847 17.667-12.58 10.919-20.771 27.158-20.47 43.771"/>
        <path fill="#2E5488" d="M239.543 125.172c-.06.114-.216.145-1.152-.229a32.082 32.082 0 0 1-.858-.36l-1.24-.488a32.649 32.649 0 0 0-1.685-.637c-.324-.115-.664-.25-1.035-.371l-1.185-.382c-1.684-.543-4.786-1.362-7.766-1.842-2.973-.51-5.8-.708-6.818-.83-2.042-.205-3.977-.21-5.994-.205-.804.008-1.608.024-2.41.046-1.613.052-3.21.181-4.766.298-.776.073-1.54.168-2.292.249-.376.044-.75.078-1.117.13l-1.088.162c-1.569.208-6.677.957-13.184 3.023a76.519 76.519 0 0 0-10.43 4.205 68.6 68.6 0 0 0-10.561 6.435 61.605 61.605 0 0 0-8.97 8.119c-1.303 1.413-2.457 2.867-3.526 4.26l-1.503 2.073-1.305 2.006c-.434.635-.778 1.286-1.135 1.89-.343.611-.705 1.173-.981 1.737l-.803 1.571c-.252.486-.48.936-.658 1.36l-.886 1.992c-.215.478-.306.78-.337.846l-.748 2.032c-.26.739-.473 1.486-.653 2.013l-.348 1.063c-.096.326-.168.627-.243.903l-.387 1.459-.173.643-.14.653c-.1.446-.205.923-.33 1.491-.197.783-.308 1.535-.43 2.24-.111.708-.259 1.365-.328 1.985l-.213 1.717c-.066.525-.147 1-.17 1.43-.143 1.714-.286 2.633-.41 2.636-.122.001-.265-.927-.387-2.688-.044-.44-.024-.93-.022-1.47l.035-1.77c.016-.637.108-1.316.173-2.045.072-.728.141-1.503.299-2.308.204-1.17.367-2.27.648-3.353l.387-1.645c.135-.556.322-1.11.492-1.692.18-.579.345-1.187.565-1.811l.728-1.965c.242-.698.569-1.409.905-2.174.336-.765.684-1.584 1.135-2.426l.845-1.668c.399-.746.918-1.619 1.424-2.508 1.062-1.746 2.213-3.478 2.73-4.114l.526-.709c.285-.388.669-.922 1.193-1.543a61 61 0 0 1 4.31-4.862l1.455-1.455 1.625-1.472c.28-.25.558-.51.85-.76l.905-.738c.615-.489 1.215-1.024 1.877-1.5 2.579-2 5.51-3.874 8.544-5.564 1.51-.86 3.08-1.611 4.625-2.358l2.336-1.03c.772-.34 1.558-.623 2.32-.93 3.07-1.174 6.025-2.117 8.647-2.773 5.235-1.36 9.057-1.815 9.714-1.925 5.444-.818 12.49-1.143 18.713-.534 3.111.286 6.008.777 8.4 1.325a60.47 60.47 0 0 1 5.44 1.501c2.32.726 4.053 1.64 5.2 2.315 1.128.726 1.682 1.213 1.621 1.326"/>
        <path fill="#2E5488" d="M187.778 130.084c-.119.011-.25.037-.297-.201-.019-.12.032-.307.159-.459.127-.153.295-.276.545-.355.151-.04.29-.062.452-.072.165-.011.349.004.523.041.351.072.648.249.718.351.141.199.339.317.476.52a2.268 2.268 0 0 1 .38 1.357 2.418 2.418 0 0 1-.565 1.451 2.333 2.333 0 0 1-1.102.73c-.215.068-.43.105-.64.123-.21.016-.405.017-.633-.007a2.26 2.26 0 0 1-.72-.196 1.838 1.838 0 0 1-.647-.505 2.116 2.116 0 0 1-.452-1.198c-.024-.353.033-.64.092-.845.06-.203.107-.298.11-.316.03-.122.107-.317.173-.406.19-.262.232-.327.412-.453.502-.323.886-.283 1.058-.115.178.174.212.643.077 1.058-.082.293-.12.524-.175.76-.02.046.025.254.004.294a.404.404 0 0 0 .02.18c.003.027.033.074.161.114.12.04.337.058.502.048.17-.01.32-.048.424-.106a.83.83 0 0 0 .283-.255.885.885 0 0 0 .161-.42.9.9 0 0 0-.072-.387.995.995 0 0 0-.275-.362.893.893 0 0 0-.365-.183.557.557 0 0 0-.15-.014l-.058.007-.01.014c-.017.014-.018.03-.052-.04a.503.503 0 0 0-.163-.188.12.12 0 0 0-.027-.012.315.315 0 0 0-.106-.004c-.08.01-.157.042-.221.05M160.247 153.711c-.014.261-.064.376-.272.554a1.55 1.55 0 0 0-.184.197c-.055.068-.083.12-.111.097-.06-.043-.057.032-.077.046l-.02.013a.23.23 0 0 0-.064.064c-.016.01-.02.066-.052.063-.016 0-.032.002-.041.003l-.013.003h-.005l-.145.042.007-.002a.351.351 0 0 0 .101-.053c.067-.053.032-.053 0 .055a.391.391 0 0 0-.014.138.187.187 0 0 0 .006.026v.002l-.066-.141v.003l.003.004a.239.239 0 0 0 .02.04c.066.093.02.002-.153-.054-.011-.013.011-.133-.001-.133-.021-.026-.045-.069-.043-.1.009-.089-.01-.111.032-.194.117-.233.313-.467.545-.558.224-.09.646-.08.892.21.165.217.332.374.302.903-.007.05-.009.194-.055.363-.041.165-.134.344-.197.4-.018.013-.248.365-.722.534a1.42 1.42 0 0 1-.85.033 1.538 1.538 0 0 1-.7-.42 1.457 1.457 0 0 1-.38-.71 1.498 1.498 0 0 1 .018-.65c.096-.358.255-.54.273-.577.17-.295.547-.57.876-.676.333-.12.616-.137.739-.187.263-.095.378.407.35.662M164.238 187.211c-.004-.15-.01-.271.04-.4.05-.123.172-.28.495-.336.158-.031.47-.007.722.152.256.148.42.39.43.491.022.201.127.358.147.554.004.079.01.158.004.234-.016.31-.109.588-.23.814-.072.117-.278.538-.89.83-.295.131-.67.192-1.045.121-.375-.07-.7-.24-.97-.493a1.803 1.803 0 0 1-.539-.97 1.361 1.361 0 0 1-.02-.357c.009-.138.053-.308.125-.445a1.28 1.28 0 0 1 .461-.493c.262-.155.33-.166.42-.214.08-.04.128-.063.133-.069a.579.579 0 0 1 .174-.12c.153-.05.183-.08.312-.075.356.015.635.185.742.406.107.22.108.635-.1.92-.15.206-.255.37-.579.528a1.107 1.107 0 0 0-.14.086l-.003.004-.077-.118a1.983 1.983 0 0 0-.132-.177.793.793 0 0 0-.123-.124c-.003-.007-.071-.042-.046-.032.032.008.092.02.215.01.062-.006.142-.016.252-.04l.044-.01c.002 0 0 0 0 0l-.002.001-.005.003c-.039.013-.015.132.078.206a.25.25 0 0 0 .263.061.385.385 0 0 0 .167-.128c.058-.114.098-.245.046-.366-.046-.13-.189-.16-.242-.11-.053.04-.062-.017-.085-.075a.854.854 0 0 1-.026-.095c-.004-.019-.007-.026-.01-.056l-.006-.118M224.499 125.123c-.043.122-.08.212-.106.295-.013.05-.007.014-.009.071 0 .02.013.072.028.105.017.032.023.035.02.034a.171.171 0 0 0-.03-.027l-.027-.017a.293.293 0 0 0-.107-.036c-.012-.008-.035.022.058-.04a.288.288 0 0 0 .074-.088c.003-.01-.016.045-.01.107.005.066.03.094.021.083a.258.258 0 0 0-.1-.053c-.093-.02-.081-.008-.078-.012 0 0 .014-.002.025-.006a.302.302 0 0 0 .077-.037.212.212 0 0 0 .059-.055c-.007.01.014-.022.028-.05.015-.028.028-.057.041-.084l.076-.173a.708.708 0 0 1 .278-.327.513.513 0 0 1 .518.011c.24.155.443.335.444.79 0 .04 0 .163-.025.29-.025.127-.082.256-.125.297-.022.011-.144.253-.471.45-.33.203-.805.222-1.134.076-.338-.136-.6-.41-.713-.7-.112-.29-.067-.518-.065-.549.015-.315.227-.607.453-.764.226-.168.484-.222.607-.268.128-.05.238.068.259.221.025.155-.023.335-.066.456M192.632 157.058c.045-.253.08-.378.299-.512l.187-.107.005-.003.458.26c.201.113.349.281.343.357-.01.126.086.198.114.306l.028.128c.03.173.031.352.011.521-.012.077-.032.322-.232.635a1.393 1.393 0 0 1-.46.446 1.336 1.336 0 0 1-.75.183 1.447 1.447 0 0 1-1.11-.603 1.208 1.208 0 0 1-.219-.602c-.016-.198.022-.336.042-.422l.072-.316.315-.182.186-.107a.216.216 0 0 0 .041-.028c.019-.033.055-.079.085-.087.088-.027.1-.05.187-.029.236.057.46.244.583.457.123.212.224.586.157.817-.048.167-.078.302-.252.405l-.11.082-.094-.687a.088.088 0 0 0-.034-.007h-.001c-.014-.003.019.015.124-.068a.41.41 0 0 0 .09-.112c.006-.016-.015.03-.013.097 0 .066.03.126.026.117l.001.002c.085.108-.114-.146-.093-.12l.002.003-.004-.004-.03-.02c.006.005.048-.019.043-.025.02-.06.01-.24-.04-.25l.296.163c-.104-.013-.14-.01-.167 0-.14.058-.132-.433-.086-.688"/>
        <path fill="#C0D5EE" d="M67.422 28.358c-.047.024-.107.044-.176-.083a.469.469 0 0 1-.024-.31.596.596 0 0 1 .418-.438l.018-.007h.064l.236-.003c.22-.003.625.04.987.161.365.11.678.29.777.373.194.171.403.294.586.47l.211.214c.271.3.49.636.65.963.086.181.39.758.376 1.682a1.564 1.564 0 0 1-.25.785 1.55 1.55 0 0 1-.705.56c-.538.22-1.086.21-1.584.164a4.497 4.497 0 0 1-1.452-.384 2.977 2.977 0 0 1-1.083-.826 2.126 2.126 0 0 1-.446-.929c-.05-.252-.042-.405-.045-.425-.009-.161.008-.438.058-.584.136-.426.2-.533.408-.786.313-.34.692-.469.933-.466.243-.002.356.082.355.135-.004.136-.435.272-.699.775a1.67 1.67 0 0 0-.177.571c-.023.205-.043.456.051.741.015.058.074.184.18.336.103.142.236.266.285.322.024.022.255.264.732.461.235.1.53.184.854.234.326.05.684.075 1.002.025.326-.047.59-.18.712-.38.127-.196.139-.5.103-.765-.064-.535-.248-.89-.274-.949a3.58 3.58 0 0 0-1.262-1.406c-.538-.355-1.104-.461-1.344-.466-.073 0-.14-.007-.202-.019l.072-.006c-.013-.023-.126.015-.188.079-.071.06-.108.154-.157.18M88.543 113.037c-.049-.042-.079-.081-.023-.194.053-.102.216-.325.655-.431.216-.06.62-.066.962.046.344.104.626.294.71.384.162.177.344.325.48.53.046.08.1.156.138.24.171.327.272.675.318.999.02.17.117.769-.172 1.513a2.42 2.42 0 0 1-.796 1.052 2.38 2.38 0 0 1-1.385.444c-.487.01-.973-.13-1.366-.391-.39-.271-.667-.647-.767-1.045a1.78 1.78 0 0 1 .013-.936c.06-.217.121-.336.126-.353.05-.133.17-.345.26-.447.263-.296.358-.355.615-.487.375-.161.721-.143.917-.06.199.082.269.18.25.234-.046.128-.438.15-.802.466-.134.116-.23.24-.326.39-.088.152-.185.338-.227.592l-.012.122c.01.052 0 .12.02.178.016.125.078.23.097.284.005.024.106.253.444.45.328.194.929.286 1.425.067.496-.191.822-.725.917-1.16.108-.441.05-.778.044-.832-.068-.463-.304-1.049-.732-1.353-.417-.334-.902-.383-1.063-.325-.17.044-.298.057-.427.065-.124.01-.243.002-.293-.042M161.915 34.567c.016-.063.034-.107.12-.123.083-.015.253-.012.506.144.13.074.337.256.467.47.141.21.203.44.203.524-.003.169.037.322.027.49-.007.067-.018.134-.028.2-.05.266-.167.526-.33.733-.05.053-.145.175-.325.295a1.477 1.477 0 0 1-.744.248c-.613.033-1.287-.295-1.667-.882a1.55 1.55 0 0 1-.247-1.014c.013-.204.098-.45.245-.588a.768.768 0 0 1 .535-.212c.086-.003.205.011.24.016l.129.017.208.028.197.024c.076 0 .205.005.275.018.207.038.261.038.406.087.4.136.612.301.597.423-.016.121-.275.277-.693.307-.302.021-.526.044-.998-.016l-.263-.026c0 .003.002.002-.005-.007a.016.016 0 0 0-.014-.005c-.006.003-.017-.02-.029.109-.024.19.103.502.373.716.264.213.618.299.844.227.24-.053.35-.213.374-.227.156-.196.253-.566.18-.89-.055-.328-.255-.545-.351-.599a.463.463 0 0 1-.187-.23.474.474 0 0 1-.045-.257M200.363 95.32c-.01-.063-.011-.111.057-.162.068-.05.21-.104.487-.094.14.002.392.047.612.15.221.097.398.25.445.32.085.144.209.244.286.394.034.056.059.12.085.18.103.249.14.526.12.767-.009.128-.06.575-.4 1.007-.165.215-.402.421-.7.565a1.697 1.697 0 0 1-1.016.138c-.685-.115-1.23-.655-1.341-1.214a1.285 1.285 0 0 1 .043-.688c.059-.156.113-.239.118-.25.042-.097.147-.24.22-.306.218-.185.29-.222.49-.281.287-.072.535-.005.66.087.13.091.155.187.13.238-.028.058-.118.096-.215.15-.099.052-.197.121-.299.207a1.012 1.012 0 0 0-.298.49.356.356 0 0 0 .003.127c.007.064.037.124.037.154.007.01.034.142.205.29.165.146.471.274.764.202.304-.06.586-.302.716-.53.137-.23.154-.421.155-.45.028-.26-.09-.6-.32-.825-.222-.233-.503-.325-.621-.325-.22-.011-.388-.207-.423-.34M126.853.134c.057-.112.11-.172.622-.002.128.044.364.136.582.266.218.128.407.306.453.387.093.163.216.29.294.47.034.072.06.145.079.22.086.298.087.6.041.862-.028.136-.11.624-.555 1.087-.22.223-.543.437-.925.51-.378.08-.778.03-1.129-.109a2.094 2.094 0 0 1-.873-.657 1.76 1.76 0 0 1-.363-.907c-.048-.582.146-.928.146-.95.03-.103.105-.27.167-.35.176-.239.23-.296.407-.416.251-.159.484-.208.642-.2.16.009.242.06.254.119.021.128-.199.338-.412.638-.149.223-.24.405-.328.778a1.197 1.197 0 0 0-.01.231l.032.228c.006.016.026.193.205.405.17.212.526.43.903.44.373.018.714-.2.892-.46.184-.256.223-.49.23-.525a1.18 1.18 0 0 0-.286-1.005 2.104 2.104 0 0 0-.734-.525c-.305-.116-.39-.417-.334-.535"/>
        <path fill="#154A89" d="M79.367 142.933l1.538 2.677 2.745 1.427-2.688 1.532-1.434 2.733-1.537-2.677-2.746-1.428 2.689-1.53zM95.247 15.896l.673 1.171 1.201.625-1.176.67-.628 1.196-.673-1.171-1.201-.625 1.177-.67zM50.854 48.27l.334.58.595.31-.584.332-.31.593-.334-.581-.596-.31.584-.332zM219.789 44.777l-.161 1.532.695 1.376-1.539-.16-1.382.691.16-1.532-.694-1.376 1.538.16z"/>
    </g>
</svg>
