<svg xmlns="http://www.w3.org/2000/svg" width="39" height="21" viewBox="0 0 39 21">
    <g fill="none" fill-rule="evenodd">
        <path fill="#121212" fill-rule="nonzero" d="M1.73 20.2H.966v-4.712h2.659v.651H1.73v1.473h1.775v.654H1.73V20.2zm5.72-1.789c0 .583-.15 1.037-.448 1.364-.3.326-.715.49-1.248.49-.333 0-.627-.076-.883-.226a1.49 1.49 0 0 1-.59-.648 2.206 2.206 0 0 1-.206-.98c0-.578.149-1.029.445-1.353.297-.325.714-.487 1.254-.487.515 0 .924.166 1.224.498.301.332.451.78.451 1.342zm-2.595 0c0 .823.304 1.235.912 1.235.602 0 .903-.412.903-1.235 0-.814-.303-1.221-.91-1.221-.317 0-.548.105-.69.316-.143.21-.215.512-.215.905zm5.163-1.84c.152 0 .278.011.377.033l-.075.705a1.431 1.431 0 0 0-.335-.038c-.303 0-.548.098-.736.296-.188.198-.282.454-.282.77V20.2H8.21v-3.564h.593l.1.628h.038c.118-.213.272-.381.463-.506a1.1 1.1 0 0 1 .614-.187zm2.612-1.083h1.399c.649 0 1.118.095 1.407.284.289.19.433.488.433.896 0 .275-.07.504-.213.686-.141.183-.346.298-.612.345v.032c.33.063.574.186.73.37.156.183.234.432.234.745 0 .424-.148.755-.444.995-.295.24-.706.359-1.232.359H12.63v-4.712zm.77 1.947h.742c.322 0 .557-.051.705-.153.149-.102.223-.276.223-.52 0-.222-.08-.382-.24-.48-.16-.1-.414-.149-.762-.149H13.4v1.302zm0 .625v1.492h.819c.322 0 .566-.062.73-.185.164-.124.246-.319.246-.585 0-.245-.083-.426-.25-.545-.168-.118-.423-.177-.765-.177h-.78zm5.91 2.14l-.106-.467h-.039a1.075 1.075 0 0 1-.45.39 1.503 1.503 0 0 1-.665.141c-.432 0-.754-.107-.966-.322-.213-.215-.32-.54-.32-.976v-2.33h.764v2.198c0 .272.056.477.168.614.112.136.287.204.525.204.318 0 .552-.095.701-.285.15-.19.224-.509.224-.956v-1.775h.76V20.2h-.596zm3.96-1.015c0 .348-.126.615-.38.8-.253.187-.616.28-1.089.28-.475 0-.856-.073-1.144-.216v-.655c.419.194.809.29 1.17.29.466 0 .7-.14.7-.422a.334.334 0 0 0-.078-.225.915.915 0 0 0-.255-.187 4.381 4.381 0 0 0-.493-.22c-.41-.158-.688-.317-.833-.476-.145-.16-.217-.366-.217-.62 0-.304.123-.541.369-.71.246-.168.58-.253 1.003-.253.42 0 .816.085 1.19.255l-.245.57c-.385-.159-.708-.238-.97-.238-.4 0-.6.114-.6.341 0 .112.052.207.157.284.104.077.33.184.681.32.294.113.508.217.641.312a.934.934 0 0 1 .297.327.947.947 0 0 1 .097.443zm1.466 1.015h-.757v-3.564h.757V20.2zm-.802-4.508c0-.136.037-.24.111-.313.074-.073.18-.11.318-.11.133 0 .237.037.31.11.075.073.112.177.112.313 0 .128-.037.23-.111.304a.42.42 0 0 1-.311.111c-.138 0-.244-.037-.318-.111a.412.412 0 0 1-.111-.304zm4.91 4.508h-.76v-2.191c0-.275-.055-.48-.166-.616-.11-.135-.286-.203-.526-.203-.32 0-.555.095-.703.284-.148.189-.222.506-.222.95V20.2h-.758v-3.564h.593l.107.467h.038c.108-.17.26-.3.458-.393.198-.093.417-.139.657-.139.855 0 1.283.435 1.283 1.305V20.2zm2.501.064c-.554 0-.987-.161-1.3-.485-.313-.323-.469-.768-.469-1.335 0-.583.145-1.04.435-1.373.29-.333.689-.5 1.196-.5.47 0 .842.143 1.115.429.273.286.409.679.409 1.18v.409h-2.375c.01.346.104.611.28.797.176.186.425.279.745.279.21 0 .406-.02.588-.06.181-.04.376-.105.585-.198v.616c-.185.088-.372.15-.561.187-.189.036-.405.054-.648.054zm-.138-3.12a.76.76 0 0 0-.579.23c-.145.152-.231.375-.26.667h1.619c-.005-.295-.076-.517-.213-.669-.138-.151-.327-.227-.567-.227zm4.669 2.04c0 .349-.127.616-.38.802-.254.186-.617.278-1.09.278-.474 0-.856-.072-1.144-.215v-.655c.42.194.81.29 1.17.29.466 0 .7-.14.7-.422a.334.334 0 0 0-.078-.225.915.915 0 0 0-.254-.187 4.381 4.381 0 0 0-.494-.22c-.41-.158-.688-.317-.833-.476-.145-.16-.217-.366-.217-.62 0-.304.123-.541.369-.71.246-.168.58-.253 1.004-.253.419 0 .815.085 1.189.255l-.245.57c-.385-.159-.708-.238-.97-.238-.4 0-.6.114-.6.341 0 .112.053.207.157.284.104.077.331.184.681.32.295.113.509.217.642.312a.934.934 0 0 1 .296.327.947.947 0 0 1 .097.443zm3.103 0c0 .349-.127.616-.38.802-.254.186-.617.278-1.09.278-.474 0-.856-.072-1.144-.215v-.655c.42.194.81.29 1.17.29.466 0 .7-.14.7-.422a.334.334 0 0 0-.078-.225.915.915 0 0 0-.254-.187 4.381 4.381 0 0 0-.494-.22c-.41-.158-.688-.317-.833-.476-.145-.16-.217-.366-.217-.62 0-.304.123-.541.369-.71.246-.168.58-.253 1.004-.253.419 0 .815.085 1.189.255l-.245.57c-.385-.159-.708-.238-.97-.238-.4 0-.6.114-.6.341 0 .112.053.207.157.284.104.077.331.184.681.32.295.113.509.217.642.312a.934.934 0 0 1 .296.327.947.947 0 0 1 .097.443z"/>
        <path fill="#00B9F5" d="M38.464 3.626a2.526 2.526 0 0 0-2.385-1.682h-.023c-.716 0-1.362.297-1.822.773a2.525 2.525 0 0 0-1.822-.773h-.023c-.63 0-1.205.23-1.647.608v-.191a.372.372 0 0 0-.37-.345H28.68a.373.373 0 0 0-.374.373v9.13c0 .206.168.372.374.372h1.69c.19 0 .344-.14.369-.321l-.001-6.554a.614.614 0 0 1 .586-.629h.312a.618.618 0 0 1 .586.629l.006 6.522c0 .205.168.372.374.372h1.69c.2 0 .362-.157.372-.354l-.001-6.548c-.001-.216.099-.41.275-.525a.67.67 0 0 1 .31-.104h.313a.616.616 0 0 1 .585.629l.007 6.513c0 .206.167.372.374.372h1.69a.373.373 0 0 0 .373-.372V4.516c0-.478-.054-.681-.127-.89M27.02 2.04h-.967V.48a.34.34 0 0 0-.406-.334c-1.072.292-.857 1.769-2.813 1.895h-.191a.372.372 0 0 0-.081.01h-.002.001a.372.372 0 0 0-.292.361v1.681c0 .206.168.373.374.373h1.02v7.128c0 .203.165.368.368.368h1.672c.204 0 .37-.165.37-.368V4.466h.947a.373.373 0 0 0 .373-.373v-1.68a.373.373 0 0 0-.373-.372"/>
        <path fill="#012B72" d="M20.938 2.04h-1.69a.373.373 0 0 0-.374.372V5.89a.394.394 0 0 1-.395.388h-.709a.395.395 0 0 1-.396-.394l-.007-3.47a.373.373 0 0 0-.374-.372h-1.69a.373.373 0 0 0-.373.371v3.81c0 1.448 1.037 2.48 2.493 2.48 0 0 1.093 0 1.126.005a.393.393 0 0 1 .351.39c0 .2-.15.363-.345.388l-.029.005-2.472.01a.373.373 0 0 0-.374.371v1.68c0 .206.168.372.374.372h2.764c1.456 0 2.494-1.031 2.494-2.479V2.412a.373.373 0 0 0-.374-.371M4.576 5.121V6.16a.395.395 0 0 1-.396.393l-1.073.002v-2.08H4.18c.218 0 .396.177.396.394v.253zm.148-3.08H1.03a.366.366 0 0 0-.366.364v9.135c0 .203.152.367.342.372h1.722a.373.373 0 0 0 .374-.372l.006-2.555h1.617c1.354 0 2.297-.933 2.297-2.285V4.33c0-1.352-.943-2.289-2.297-2.289zM11.59 9.068v.262a.38.38 0 0 1-.023.117.395.395 0 0 1-.376.253h-.703c-.22 0-.399-.165-.399-.37V7.891c.001-.203.18-.368.399-.368h.703c.22 0 .398.166.398.37v1.175zm-.27-7.018H8.975c-.207 0-.376.157-.376.349v.654l.002.013-.002.008v.901c0 .204.179.37.399.37h2.233a.386.386 0 0 1 .336.355v.217a.373.373 0 0 1-.327.346h-1.105c-1.471 0-2.52.972-2.52 2.336v1.955c0 1.358.901 2.323 2.362 2.323h3.065c.55 0 .996-.414.996-.924v-6.38c0-1.546-.802-2.523-2.718-2.523z"/>
    </g>
</svg>
