<svg xmlns="http://www.w3.org/2000/svg" width="85" height="33" viewBox="0 0 85 33">
    <g fill="none" fill-rule="evenodd">
        <path d="M-1 .25h87v32.813H-1z" opacity=".6"/>
        <path fill="#00BAF2" d="M81.894 9.814c-.723-2.174-2.689-3.734-5-3.734h-.05c-1.501 0-2.856.659-3.82 1.715-.964-1.056-2.318-1.715-3.82-1.715h-.048c-1.32 0-2.527.51-3.454 1.35v-.425c-.032-.427-.365-.764-.777-.764H61.38c-.433 0-.784.37-.784.827v20.266c0 .457.351.827.784.827h3.545c.395 0 .72-.311.772-.714V15.563l-.002-2.663c0-.05.002-.098.007-.147.058-.649.508-1.183 1.222-1.249h.654c.299.028.55.138.747.304.31.26.482.656.48 1.092v13.946l.015.53c0 .456.351.826.783.826h3.545c.42 0 .76-.349.78-.786V15.544l-.003-2.663c-.001-.48.209-.912.578-1.166.18-.124.4-.207.651-.23h.654c.766.071 1.23.682 1.228 1.396l-.002 2.663h.002v.753h.014v11.04c0 .457.352.827.784.827h3.544c.433 0 .784-.37.784-.826v-15.55c0-1.059-.114-1.51-.268-1.974M57.896 6.295h-2.027V2.837v-.01c0-.417-.32-.754-.716-.754a.655.655 0 0 0-.135.016c-2.248.649-1.797 3.927-5.9 4.206h-.4a.741.741 0 0 0-.17.021h-.004.002a.816.816 0 0 0-.612.804v3.73c0 .458.351.827.784.827h2.14v10.8c0 .007-.003.015-.003.023v5c0 .451.347.817.775.817h3.504c.428 0 .775-.366.775-.817v-3.512h.001v-12.31h1.986c.432 0 .783-.37.783-.828V7.12c0-.455-.35-.825-.783-.825"/>
        <path fill="#20336B" d="M45.142 6.295h-3.544c-.433 0-.783.37-.783.825v2.003h-.016v2.443c.011.056.017.115.017.174v2.518l-.001.014v.565c-.007.476-.375.86-.83.86H38.5c-.459 0-.83-.391-.83-.874v-5.7h-.015V7.12c0-.455-.352-.825-.784-.825h-3.544c-.433 0-.784.37-.784.825v8.456c0 3.214 2.176 5.503 5.229 5.503h2.239s.052 0 .123.014c.413.05.735.415.735.864a.856.856 0 0 1-.724.862c-.02.004-.038.008-.06.011l-1.006.02h-4.178c-.433 0-.784.37-.784.826v3.73c0 .456.351.825.784.825h5.796c3.053 0 5.23-2.29 5.23-5.502V7.119c0-.454-.352-.824-.785-.824M10.83 13.133v2.302c0 .483-.371.875-.83.875h-.333c-.007 0-.013.002-.02.003H7.751v-4.616H10c.458 0 .83.391.83.874v.562zm.312-6.838H6.935l-.05.002-.019-.002H3.394c-.425 0-.769.362-.769.808v3.656l.002.021-.002.053V27.38c0 .45.32.816.717.827h3.611c.433 0 .784-.369.784-.826l.014-5.672h3.39c2.84 0 4.817-2.07 4.817-5.072v-5.264c0-2.999-1.977-5.078-4.816-5.078zM25.539 21.893v.583a.81.81 0 0 1-.047.258v.001a.832.832 0 0 1-.789.562h-1.475a.828.828 0 0 1-.835-.821v-.704l-.002-.026.001-1.873a.01.01 0 0 1 0-.004v-.583-.004a.828.828 0 0 1 .836-.817h1.475c.461 0 .836.368.836.82v2.608zm-.565-15.577h-4.918a.782.782 0 0 0-.788.774v1.45l.003.03-.003.03v1.989c0 .453.374.82.835.82h1.746l.017.001h2.921c.369.06.662.343.705.789v.481c-.043.422-.332.73-.686.767h-2.318c-3.085 0-5.284 2.157-5.284 5.185v4.342c0 3.011 1.89 5.154 4.953 5.154h4.362l.087-.002.034.002h1.946c1.153 0 2.088-.919 2.088-2.052V11.917c0-3.434-1.682-5.601-5.7-5.601z"/>
    </g>
</svg>
