<svg xmlns="http://www.w3.org/2000/svg" xmlns:xlink="http://www.w3.org/1999/xlink" width="80" height="102" viewBox="0 0 80 102">
    <defs>
        <path id="a" d="M0 .295h37.891v70.37H0z"/>
        <path id="c" d="M.04.26h41.837v24.756H.039z"/>
        <linearGradient id="e" x1="50.001%" x2="50.001%" y1="99.99%" y2="-.011%">
            <stop offset="0%" stop-color="#20B038"/>
            <stop offset="100%" stop-color="#60D66A"/>
        </linearGradient>
        <linearGradient id="f" x1="50.001%" x2="50.001%" y1="100.003%" y2=".003%">
            <stop offset="0%" stop-color="#F9F9F9"/>
            <stop offset="100%" stop-color="#FFF"/>
        </linearGradient>
    </defs>
    <g fill="none" fill-rule="evenodd">
        <path fill="#FFF" d="M5.644 83.296l27.167-.17c2.691-.016 4.88-2.081 4.862-4.59L37.3 17.922c-.016-2.509-2.232-4.548-4.923-4.532l-27.167.17C2.518 13.576.33 15.641.347 18.15l.374 60.613c.017 2.51 2.232 4.549 4.923 4.533"/>
        <g transform="translate(0 12.806)">
            <mask id="b" fill="#fff">
                <use xlink:href="#a"/>
            </mask>
            <path fill="#2D5189" d="M5.644 70.442c0-.054.187-.095 1.747-.141 1.56-.045 4.49-.095 9.977-.165l12.462-.149c.588-.006 1.172-.012 1.746-.02l.854-.008.417-.006.385-.023c1.02-.106 1.941-.52 2.596-1.098a4.217 4.217 0 0 0 1.276-1.88c.038-.158.09-.305.114-.45.02-.144.052-.28.059-.408l.019-.36v-.333c.006-3.205-.04-6.22-.059-9.369l-.023-3.76-.087-14.515-.125-21.128-.05-8.433-.013-2.231-.003-.565-.002-.283-.016-.258a3.904 3.904 0 0 0-.21-1.017c-.468-1.323-1.672-2.377-3.083-2.734-.177-.041-.353-.089-.535-.106a3.62 3.62 0 0 0-.546-.047c-.37-.014-.782 0-1.172 0l-2.385.014-4.825.028-9.749.059-4.855.029-2.409.015-1.197.007c-.4.002-.804 0-1.162.027a4.818 4.818 0 0 0-2.07.692 4.494 4.494 0 0 0-1.496 1.538 4.064 4.064 0 0 0-.523 2.037l.014 2.28.097 16.451.102 16.594.056 6.734.034 10.11-.019 6.743-.008 1.413c-.006.232.01.432.018.637.032.2.046.402.104.589a4.2 4.2 0 0 0 1.01 1.857c.885.952 1.879 1.297 2.521 1.457.33.07.583.113.755.126.171.02.26.037.26.05 0 .013-.09.023-.268.03a4.076 4.076 0 0 1-.791-.05 5.059 5.059 0 0 1-1.255-.373c-.474-.217-1-.543-1.487-1.037a4.544 4.544 0 0 1-1.156-1.998 4.654 4.654 0 0 1-.125-.65 8.313 8.313 0 0 1-.037-.68l-.028-1.411-.108-6.708C.295 50.295.22 44.94.147 33.298L.056 18.514.04 14.192.02 9.818C.019 8.984.015 8.103.01 7.177L.003 5.756c-.013-.464.007-1.04.144-1.559.253-1.065.94-2.04 1.865-2.726C2.932.77 4.138.41 5.335.42l7.173-.033L28.061.314l3.972-.019a7.71 7.71 0 0 1 1.025.043c.345.04.687.114 1.017.223.662.213 1.28.556 1.807 1.007.528.45.964 1.007 1.26 1.634.301.623.438 1.328.436 2.003l.018 3.826a704267.91 704267.91 0 0 0 .14 29.1l.08 13.956.041 7.459.02 3.706.01 1.83c.009.59.018 1.245-.16 1.85-.33 1.22-1.173 2.232-2.199 2.844a5.214 5.214 0 0 1-1.646.645c-.574.12-1.16.116-1.695.118l-6.11.038-8.605.068c-3.696.04-6.652.016-8.685-.031a73.405 73.405 0 0 1-2.334-.083c-.531-.03-.809-.062-.809-.089" mask="url(#b)"/>
        </g>
        <path fill="#2D5189" d="M6.15 74.54c0-.055.149-.096 1.385-.14 1.236-.043 3.56-.09 7.908-.152l9.877-.133 5.172-.058 1.063-.01c.355.001.585-.005.818-.073.454-.128.755-.386.915-.585a1.536 1.536 0 0 0 .362-1.072l-.002-.466-.013-1.849-.032-3.696-.018-2.98-.067-11.505-.096-16.748-.038-6.684-.02-3.57-.005-.91c-.007-.304.011-.632-.032-.85-.084-.49-.44-.922-.9-1.158a1.9 1.9 0 0 0-.753-.197c-.12-.009-.295-.003-.446-.004l-.47.003-1.891.011-3.824.023-7.727.046-7.652.045-3.731.023c-.552-.012-1.054.172-1.415.535a1.663 1.663 0 0 0-.394.624c-.087.242-.086.448-.081.771l.075 13.04.079 13.153.046 5.337c.016 4.073.028 5.107.02 8.014a693.99 693.99 0 0 1-.074 9.278c-.01.48.195.885.433 1.167.246.282.524.455.761.555.481.198.77.176.767.214 0 .013-.07.024-.21.032-.14-.004-.355-.009-.624-.096a2.185 2.185 0 0 1-.89-.552 2.04 2.04 0 0 1-.57-1.345 500.662 500.662 0 0 1-.207-9.257c-.085-5.762-.153-10.006-.21-19.234l-.07-11.718-.01-3.426-.013-3.468c0-.33-.002-.67-.004-1.019l-.002-.53v-.27l-.001-.137.008-.162c.046-.88.68-1.707 1.544-2.028.215-.083.442-.134.674-.162.245-.019.441-.013.648-.015l1.262-.006 2.644-.01 5.686-.025 12.328-.053 3.148-.013c.247-.004.56-.005.845.062.287.064.564.178.813.337.498.317.881.83 1.012 1.419a2.5 2.5 0 0 1 .051.445l.002.392.004.776a38376.415 38376.415 0 0 0 .019 4.574l.046 11.028c.028 6.564.05 11.224.052 12.038l.062 11.062.03 5.912.016 2.937.002.364a2.145 2.145 0 0 1-.325 1.148c-.281.456-.724.79-1.213.96-.244.086-.5.137-.756.14l-.705.007-1.38.008-2.667.016-4.842.03-6.821.057a166.6 166.6 0 0 1-6.884-.042c-1.612-.05-2.491-.122-2.492-.176"/>
        <path fill="#365385" d="M20.69 78.736a2.31 2.31 0 0 1-2.307 2.313 2.31 2.31 0 0 1-2.307-2.313 2.31 2.31 0 0 1 2.307-2.314 2.31 2.31 0 0 1 2.306 2.314"/>
        <path fill="#00B9F5" d="M24.597 27.726a.684.684 0 0 0-.646-.46h-.006a.68.68 0 0 0-.493.212.68.68 0 0 0-.494-.211h-.006a.68.68 0 0 0-.446.166v-.053a.1.1 0 0 0-.1-.093h-.458a.101.101 0 0 0-.101.101v2.493c0 .056.045.102.101.102h.458a.1.1 0 0 0 .1-.088v-1.79-.017a.167.167 0 0 1 .158-.154h.085a.17.17 0 0 1 .158.172l.002 1.78c0 .056.045.102.101.102h.458a.101.101 0 0 0 .1-.097v-1.788a.169.169 0 0 1 .159-.171h.085c.098.008.158.084.158.171l.002 1.779c0 .056.045.101.1.101h.458a.101.101 0 0 0 .102-.101v-1.913a.642.642 0 0 0-.035-.243M21.498 27.293h-.261v-.426a.093.093 0 0 0-.11-.091c-.29.08-.232.483-.762.517H20.313a.101.101 0 0 0-.1.102v.458c0 .057.044.102.1.102h.276v1.947a.1.1 0 0 0 .1.1h.453a.1.1 0 0 0 .1-.1v-1.947h.256a.101.101 0 0 0 .101-.102v-.458a.102.102 0 0 0-.1-.102"/>
        <path fill="#012B72" d="M19.852 27.293h-.458a.102.102 0 0 0-.101.102v.95a.107.107 0 0 1-.107.105h-.192a.107.107 0 0 1-.107-.108l-.002-.947a.102.102 0 0 0-.101-.102h-.458a.102.102 0 0 0-.101.102v1.04c0 .395.28.676.675.676 0 0 .296 0 .305.003a.107.107 0 0 1 .001.212l-.007.001-.67.002a.102.102 0 0 0-.101.102v.459c0 .056.045.101.101.101h.749a.65.65 0 0 0 .675-.676v-1.92a.102.102 0 0 0-.101-.102M15.421 28.134V28.418c0 .059-.048.107-.107.107h-.29v-.568h.29c.06 0 .107.049.107.108v.07zm.04-.84h-1a.1.1 0 0 0-.1.099V29.887c0 .055.042.1.093.102h.467a.101.101 0 0 0 .1-.102l.002-.698h.438c.367 0 .622-.254.622-.624v-.647c0-.37-.255-.625-.622-.625zM17.32 29.212v.071l-.001.018-.005.014a.107.107 0 0 1-.102.07h-.19c-.06 0-.108-.046-.108-.102v-.392c0-.056.049-.101.108-.101h.19c.06 0 .108.045.108.1v.322zm-.072-1.916h-.636c-.056 0-.101.042-.101.095v.43c0 .056.048.101.107.101h.605a.105.105 0 0 1 .091.097v.06c-.005.051-.043.09-.088.094h-.3c-.398 0-.682.265-.682.638v.534c0 .37.244.634.64.634h.83c.149 0 .27-.113.27-.253v-1.741c0-.423-.218-.69-.736-.69z"/>
        <path fill="#D9F3FC" d="M30.782 47.12H7.068c-.6 0-1.086-.488-1.086-1.09 0-.601.486-1.089 1.086-1.089h23.714c.6 0 1.086.488 1.086 1.09 0 .6-.486 1.088-1.086 1.088M20.244 52.62H6.634c-.36 0-.652-.487-.652-1.089 0-.6.292-1.088.651-1.088h13.61c.36 0 .652.487.652 1.088 0 .602-.292 1.09-.651 1.09"/>
        <path fill="#365385" d="M31.697 65.112h-24.4c-.6 0-1.086-.487-1.086-1.089V60.7c0-.601.486-1.089 1.086-1.089h24.4c.6 0 1.085.488 1.085 1.09v3.322c0 .602-.486 1.09-1.085 1.09"/>
        <g>
            <path fill="#FFF" d="M36.713 101.167l28.942-.181c2.866-.017 5.198-2.218 5.18-4.89l-.399-64.574c-.018-2.673-2.378-4.846-5.245-4.83l-28.942.182c-2.867.017-5.198 2.217-5.18 4.89l.398 64.574c.018 2.673 2.379 4.846 5.246 4.83"/>
            <path fill="#FFF" d="M38.255 98.058l27.166-.17c2.691-.016 4.88-2.082 4.862-4.59l-.373-60.614c-.017-2.509-2.233-4.548-4.924-4.533l-27.167.171c-2.69.015-4.879 2.081-4.862 4.59l.374 60.613c.017 2.509 2.233 4.549 4.924 4.533"/>
            <path fill="#185A46" d="M39.433 89.278a3.09 3.09 0 0 1-3.09-3.09V39.174a3.09 3.09 0 0 1 3.09-3.09h24.013a3.09 3.09 0 0 1 3.09 3.09v47.012a3.09 3.09 0 0 1-3.09 3.09H39.433z"/>
            <path fill="#2D5189" d="M38.254 98.01c0-.054.187-.096 1.747-.141 1.56-.046 4.49-.096 9.977-.166l12.462-.149 1.746-.018.853-.01.418-.006.386-.022c1.018-.107 1.94-.52 2.595-1.099a4.216 4.216 0 0 0 1.276-1.88c.039-.158.09-.305.114-.45.02-.144.052-.28.059-.408l.019-.36v-.332c.006-3.206-.04-6.22-.059-9.37l-.022-3.76-.088-14.514-.125-21.129-.05-8.433-.013-2.231-.003-.564-.002-.283-.016-.259a3.907 3.907 0 0 0-.21-1.017c-.469-1.323-1.672-2.376-3.083-2.733-.177-.042-.353-.09-.535-.107a3.58 3.58 0 0 0-.546-.046c-.37-.015-.782 0-1.172-.001l-2.385.014-4.825.029-9.749.058-4.855.03-2.409.014-1.198.007c-.398.002-.803 0-1.16.027a4.822 4.822 0 0 0-2.07.692 4.498 4.498 0 0 0-1.497 1.539 4.064 4.064 0 0 0-.523 2.037l.014 2.28.097 16.45.103 16.594.055 6.734.034 10.11-.018 6.744-.009 1.412c-.006.232.01.432.018.638.032.2.046.401.104.588a4.21 4.21 0 0 0 1.01 1.857c.885.952 1.879 1.298 2.521 1.457.33.07.583.113.755.126.171.021.26.038.26.05 0 .013-.09.023-.267.03a4.137 4.137 0 0 1-.792-.049 5.078 5.078 0 0 1-1.255-.374c-.474-.217-1-.543-1.487-1.037a4.538 4.538 0 0 1-1.156-1.998 4.659 4.659 0 0 1-.125-.65 8.32 8.32 0 0 1-.037-.68l-.028-1.41L33 85.13c-.095-7.27-.17-12.624-.243-24.266l-.091-14.783-.016-4.322-.019-4.375-.012-2.641-.006-1.421c-.012-.464.007-1.04.144-1.558.254-1.065.94-2.04 1.865-2.727.92-.699 2.126-1.06 3.323-1.05l7.174-.034 15.552-.073 3.972-.018a7.77 7.77 0 0 1 1.025.042c.345.041.688.114 1.017.223.662.214 1.28.556 1.808 1.007.527.45.963 1.008 1.26 1.635.3.623.437 1.327.435 2.002l.018 3.826a730944.973 730944.973 0 0 0 .14 29.1l.08 13.957.041 7.458.02 3.706.01 1.83c.01.59.018 1.245-.16 1.85-.329 1.22-1.173 2.232-2.199 2.845a5.2 5.2 0 0 1-1.646.644c-.574.121-1.16.116-1.695.118l-6.11.039-8.605.067c-3.696.04-6.652.017-8.685-.03a73.475 73.475 0 0 1-2.334-.084c-.531-.03-.809-.062-.809-.088"/>
            <path fill="#2D5189" d="M38.76 89.3c0-.053.149-.095 1.385-.138 1.236-.044 3.56-.09 7.908-.152l9.877-.133 5.172-.058 1.063-.01c.355.001.585-.006.818-.073.455-.129.756-.386.915-.585a1.533 1.533 0 0 0 .362-1.072l-.002-.466-.013-1.85-.033-3.695c-.005-.996-.01-1.99-.017-2.981l-.067-11.505a141675.744 141675.744 0 0 0-.134-23.431l-.02-3.57-.005-.911c-.007-.304.011-.63-.032-.85-.084-.49-.44-.922-.9-1.157a1.9 1.9 0 0 0-.753-.198c-.12-.009-.295-.003-.446-.003l-.47.003a11110.075 11110.075 0 0 1-5.715.034 48636.913 48636.913 0 0 1-15.38.091l-3.73.023c-.552-.012-1.054.172-1.414.535a1.658 1.658 0 0 0-.394.624c-.088.242-.087.448-.082.771l.075 13.04.079 13.152.046 5.338c.016 4.073.028 5.107.02 8.014-.01 4.011-.039 7.149-.074 9.278-.01.48.195.885.433 1.167.246.282.524.455.761.555.482.198.77.175.768.214 0 .012-.07.023-.212.032-.139-.005-.354-.009-.623-.097a2.183 2.183 0 0 1-.89-.551 2.038 2.038 0 0 1-.57-1.346 503.755 503.755 0 0 1-.207-9.256c-.085-5.763-.153-10.006-.21-19.234l-.07-11.718-.01-3.426-.013-3.468-.003-1.019-.003-.53V38.28l.007-.162c.046-.88.68-1.707 1.544-2.029a2.8 2.8 0 0 1 .674-.16c.245-.02.44-.015.648-.016l1.262-.006 2.644-.01 5.686-.025 12.328-.053 3.148-.013c.247-.004.56-.005.845.063.287.063.564.177.813.337.498.316.881.83 1.011 1.418.03.147.05.295.052.445l.003.392.003.776.006 1.541.013 3.032.046 11.03.053 12.036.061 11.063.03 5.912.016 2.937.002.364a2.157 2.157 0 0 1-.325 1.148 2.32 2.32 0 0 1-1.212.96c-.245.085-.501.136-.757.14l-.705.007-1.38.008-2.666.016-4.843.03-6.821.057a167.1 167.1 0 0 1-6.884-.042c-1.612-.05-2.491-.122-2.491-.176"/>
            <path fill="#365385" d="M53.3 93.497a2.31 2.31 0 0 1-2.307 2.314 2.31 2.31 0 0 1-2.307-2.314 2.31 2.31 0 0 1 2.307-2.313 2.31 2.31 0 0 1 2.306 2.313"/>
            <g transform="translate(24.343 .084)">
                <mask id="d" fill="#fff">
                    <use xlink:href="#c"/>
                </mask>
                <path fill="#00B9F5" d="M36.125 20.417C23.611-13.707.04 9.33.04 9.33S25.925-16.8 38.097 19.644l2.537-4.668 1.243 1.677-3.309 8.363-8.477-4.813.214-2.192 5.82 2.406z" mask="url(#d)"/>
            </g>
        </g>
        <g>
            <path fill="#FFF" d="M63 43c-9.389 0-17 7.835-17 17.5C46 70.166 53.611 78 63 78c9.388 0 17-7.834 17-17.5C80 50.835 72.389 43 63 43z"/>
            <path fill="#FFF" fill-rule="nonzero" d="M56.723 69.92l.423.254a11.451 11.451 0 0 0 5.89 1.632h.004c6.378 0 11.569-5.253 11.571-11.709a11.71 11.71 0 0 0-3.386-8.284 11.427 11.427 0 0 0-8.181-3.434c-6.383 0-11.574 5.252-11.577 11.708 0 2.213.611 4.368 1.77 6.232l.275.443-1.17 4.32 4.38-1.162zM49 74.43l1.975-7.3a14.192 14.192 0 0 1-1.858-7.043C49.12 52.319 55.365 46 63.04 46c3.724.002 7.22 1.469 9.848 4.132 2.629 2.662 4.076 6.202 4.075 9.966-.004 7.767-6.25 14.088-13.923 14.088h-.006c-2.33-.001-4.62-.593-6.653-1.715l-7.38 1.959z"/>
            <path fill="url(#e)" fill-rule="nonzero" d="M.597 14.094c0 2.397.618 4.736 1.794 6.8L.484 27.94l7.125-1.89a13.311 13.311 0 0 0 6.423 1.655h.006c7.407 0 13.437-6.102 13.44-13.6a13.6 13.6 0 0 0-3.933-9.622C21.008 1.913 17.633.497 14.037.495 6.63.495.6 6.595.597 14.095" transform="translate(49 46)"/>
            <path fill="url(#f)" fill-rule="nonzero" d="M.117 14.09c0 2.483.64 4.907 1.858 7.043L0 28.433l7.38-1.96a13.782 13.782 0 0 0 6.654 1.716h.006c7.673 0 13.92-6.321 13.922-14.088.002-3.765-1.446-7.304-4.074-9.967C21.26 1.472 17.764.004 14.04.003 6.365.003.12 6.323.117 14.09zm4.395 6.675l-.276-.443a11.783 11.783 0 0 1-1.769-6.231C2.47 7.635 7.661 2.382 14.044 2.382a11.428 11.428 0 0 1 8.181 3.434 11.71 11.71 0 0 1 3.386 8.284c-.002 6.456-5.193 11.71-11.572 11.71h-.004a11.453 11.453 0 0 1-5.89-1.633l-.423-.254-4.38 1.162 1.17-4.32z" transform="translate(49 46)"/>
            <path fill="#FFF" d="M59.56 54.2c-.26-.586-.535-.598-.783-.608-.203-.01-.435-.009-.666-.009a1.27 1.27 0 0 0-.928.44c-.319.353-1.218 1.205-1.218 2.937 0 1.733 1.247 3.407 1.42 3.642.175.235 2.407 3.904 5.943 5.315 2.939 1.173 3.537.94 4.175.88.637-.058 2.058-.85 2.348-1.673.29-.822.29-1.527.203-1.674-.087-.147-.32-.235-.667-.41-.348-.177-2.058-1.029-2.377-1.146-.32-.118-.551-.176-.783.176-.232.352-.898 1.145-1.101 1.38-.203.235-.406.265-.754.089-.348-.177-1.468-.549-2.798-1.748-1.034-.933-1.732-2.086-1.935-2.438-.203-.352-.022-.543.153-.719.156-.158.348-.41.522-.616.173-.206.231-.353.347-.588.116-.235.058-.44-.029-.616-.087-.176-.763-1.918-1.072-2.614"/>
        </g>
    </g>
</svg>
